<svg width="28" height="28" viewBox="0 0 28 28" fill="none" xmlns="http://www.w3.org/2000/svg">
<path d="M14 15.5C14 18.7 18.3333 23.1667 20.5 25L14.5 26.5L6.5 24.5L2 17.5L2.5 8.5L10 1.99999C14.6667 1.16666 23.1 0.399994 19.5 3.99999C15 8.49999 14 11.5 14 15.5Z" fill="#B5E7FC" stroke="#B5E7FC"/>
<path fill-rule="evenodd" clip-rule="evenodd" d="M12.8749 0.0109891C12.7396 0.0234578 12.3704 0.0707625 12.0546 0.116153C11.7388 0.161489 11.1974 0.261841 10.8515 0.339114C10.5056 0.416387 9.93392 0.574215 9.58118 0.689825C9.22839 0.805434 8.67468 1.01505 8.35071 1.15554C8.02669 1.29609 7.51553 1.54672 7.21474 1.71248C6.91396 1.87824 6.42178 2.1817 6.12099 2.38683C5.82021 2.59202 5.36674 2.92632 5.11321 3.12987C4.85974 3.33336 4.40446 3.748 4.10149 4.0513C3.79858 4.3546 3.36201 4.83541 3.13145 5.11978C2.90088 5.4041 2.52392 5.91975 2.29385 6.26565C2.06373 6.61155 1.66806 7.31292 1.41453 7.82424C1.12606 8.40617 0.853001 9.06078 0.684508 9.57424C0.536469 10.0254 0.354141 10.6899 0.279383 11.0508C0.204625 11.4117 0.110235 11.9285 0.0697111 12.1992C0.0224064 12.5151 -0.00253109 13.1616 0.000203291 14.0039C0.00359392 15.078 0.0260705 15.4505 0.124016 16.0547C0.189805 16.4608 0.328164 17.1143 0.431414 17.5069C0.534664 17.8996 0.703539 18.4533 0.80668 18.7374C0.909821 19.0215 1.09948 19.4877 1.2281 19.7735C1.35673 20.0592 1.58445 20.5145 1.73413 20.7852C1.88375 21.0559 2.17398 21.5235 2.37906 21.8242C2.58413 22.125 2.91767 22.5776 3.12024 22.8299C3.32285 23.0823 3.73924 23.5409 4.04555 23.8491C4.35191 24.1573 4.85804 24.6136 5.17036 24.8631C5.48268 25.1125 5.99658 25.4865 6.3124 25.6943C6.62822 25.902 7.30498 26.2787 7.81631 26.5313C8.3896 26.8145 9.06045 27.094 9.56631 27.2603C10.0175 27.4085 10.6819 27.592 11.0429 27.6679C11.4038 27.7438 12.056 27.8472 12.4921 27.8978C13.0933 27.9674 13.5362 27.9822 14.3241 27.9587C14.8956 27.9418 15.6216 27.888 15.9374 27.8393C16.2532 27.7905 16.7426 27.701 17.0248 27.6403C17.307 27.5796 17.8463 27.4313 18.2233 27.3109C18.6003 27.1903 19.1691 26.9809 19.4875 26.8454C19.8058 26.7099 20.3445 26.4475 20.6844 26.2624C21.0244 26.0773 21.4167 25.8397 21.5563 25.7344C21.7068 25.6208 21.8668 25.4324 21.9499 25.271C22.0589 25.059 22.0893 24.9204 22.0877 24.6421C22.0863 24.3862 22.0528 24.2233 21.9695 24.0664C21.9056 23.9461 21.7711 23.7705 21.6707 23.6761C21.5703 23.5817 21.4086 23.4644 21.3114 23.4154C21.2141 23.3664 21.0294 23.3119 20.9007 23.2942C20.772 23.2766 20.5563 23.2917 20.4212 23.3278C20.2862 23.3639 19.9725 23.5158 19.7241 23.6655C19.4757 23.8151 19.0339 24.0491 18.7424 24.1853C18.4508 24.3215 17.9281 24.5278 17.5807 24.6436C17.2333 24.7594 16.7259 24.9036 16.4532 24.9641C16.1804 25.0245 15.6685 25.1118 15.3156 25.1581C14.9627 25.2044 14.3667 25.2422 13.991 25.2422C13.6154 25.2422 13.0691 25.2159 12.7771 25.1837C12.485 25.1515 11.9571 25.0645 11.604 24.9904C11.2508 24.9163 10.6725 24.7561 10.3188 24.6345C9.96509 24.5128 9.37681 24.2675 9.0115 24.0892C8.64619 23.9109 8.07503 23.5831 7.74226 23.3608C7.40949 23.1385 6.91528 22.7683 6.64403 22.5382C6.37278 22.308 5.95299 21.9052 5.71122 21.643C5.46939 21.3808 5.12688 20.9731 4.95013 20.737C4.77333 20.501 4.4726 20.0461 4.28185 19.7262C4.0911 19.4063 3.80378 18.8392 3.64338 18.4659C3.48298 18.0927 3.2697 17.5021 3.1694 17.1534C3.06905 16.8048 2.93042 16.1996 2.86129 15.8086C2.75667 15.2172 2.73556 14.9047 2.73551 13.9492C2.73551 13.0046 2.75678 12.6833 2.85544 12.1389C2.92139 11.7748 3.03793 11.258 3.11438 10.9904C3.19084 10.7228 3.34232 10.2701 3.45104 9.9844C3.55976 9.69866 3.75828 9.24519 3.8922 8.97667C4.02613 8.70816 4.25593 8.29461 4.40288 8.05776C4.54977 7.82091 4.81128 7.43766 4.98404 7.20611C5.15674 6.97462 5.58167 6.49304 5.92828 6.13604C6.28424 5.76936 6.83882 5.27696 7.20271 5.00445C7.55703 4.7391 8.06426 4.39764 8.32988 4.24566C8.59544 4.09363 9.05613 3.8617 9.35363 3.73023C9.65107 3.59876 10.079 3.42786 10.3046 3.35048C10.5302 3.27304 10.9535 3.14775 11.2452 3.07201C11.5369 2.99627 12.066 2.89214 12.4209 2.84063C12.8456 2.779 13.3937 2.74788 14.0233 2.74968C14.6271 2.75143 15.2024 2.78616 15.5819 2.8438C15.9128 2.894 16.4556 3.00557 16.7881 3.09159C17.1206 3.17767 17.6374 3.33949 17.9365 3.45127C18.2356 3.56305 18.7388 3.78404 19.0546 3.94236C19.3704 4.10068 19.8872 4.40196 20.203 4.61185C20.5189 4.82174 21.017 5.19509 21.31 5.44146C21.603 5.68782 22.0341 6.10323 22.2679 6.36463C22.5017 6.62599 22.8059 6.98752 22.944 7.16799C23.0821 7.34846 23.3047 7.66838 23.4387 7.87893C23.5728 8.08948 23.7836 8.44631 23.9073 8.6719C24.031 8.89748 24.2439 9.35511 24.3803 9.68881C24.5168 10.0226 24.7029 10.553 24.7938 10.8676C24.8847 11.1822 25.0135 11.7336 25.08 12.0929C25.1847 12.6591 25.2017 12.95 25.2075 14.2774C25.2119 15.267 25.2358 15.8596 25.2753 15.9529C25.3089 16.0323 25.4156 16.1875 25.5125 16.298C25.6095 16.4083 25.7895 16.5518 25.9127 16.6168C26.0805 16.7054 26.2326 16.7351 26.5194 16.7351C26.8055 16.7351 26.9585 16.7054 27.1247 16.6176C27.2471 16.553 27.4368 16.4009 27.5464 16.2797C27.6683 16.1447 27.7825 15.9365 27.8409 15.7425C27.92 15.4798 27.9367 15.1974 27.9388 14.086C27.9403 13.2556 27.9137 12.5485 27.8687 12.2266C27.8288 11.9408 27.7256 11.3815 27.6394 10.9835C27.5533 10.5856 27.3734 9.93349 27.2399 9.53432C27.1063 9.13521 26.8828 8.55487 26.7432 8.24473C26.6036 7.9346 26.3629 7.45472 26.2083 7.17833C26.0537 6.90194 25.7603 6.42971 25.5563 6.12893C25.3523 5.82815 25.018 5.37348 24.8134 5.11853C24.6087 4.86357 24.1823 4.396 23.8658 4.07946C23.5493 3.76293 23.0817 3.33653 22.8267 3.13189C22.5718 2.92725 22.1171 2.59202 21.8163 2.38683C21.5155 2.1817 21.0221 1.87709 20.7199 1.70991C20.4176 1.54273 19.9397 1.30451 19.6579 1.18048C19.3761 1.0565 18.8605 0.856239 18.5122 0.735543C18.1638 0.614848 17.5835 0.445481 17.2226 0.359184C16.8616 0.272887 16.3079 0.162145 15.9921 0.113091C15.6417 0.0586218 14.9703 0.01695 14.2694 0.00612187C13.6378 -0.00366718 13.0103 -0.00147969 12.8749 0.0109891ZM18.9726 8.91958C18.8523 8.96289 18.7423 8.99877 18.7283 8.9992C18.7143 8.99964 17.1702 10.5314 15.297 12.4031L11.891 15.8061L10.592 14.5116C9.66327 13.5863 9.22271 13.1855 9.04678 13.1059C8.88703 13.0337 8.68551 12.9946 8.47256 12.9946C8.26764 12.9946 8.06229 13.0328 7.92568 13.0963C7.80537 13.1522 7.61582 13.2932 7.50453 13.4095C7.39319 13.5259 7.26402 13.7126 7.21742 13.8244C7.17083 13.9363 7.13271 14.1732 7.13271 14.351C7.13271 14.5287 7.17176 14.7694 7.2195 14.8859C7.28015 15.034 7.86832 15.6629 9.17458 16.9766C10.6199 18.4302 11.1048 18.8851 11.3163 18.9858C11.4878 19.0675 11.6894 19.1163 11.8568 19.1167C12.0037 19.117 12.2252 19.0886 12.349 19.0537C12.5436 18.9988 13.1154 18.4509 16.5585 15.0205C19.7485 11.8422 20.5688 10.9963 20.6732 10.7774C20.7549 10.6059 20.8037 10.4044 20.804 10.2368C20.8044 10.0899 20.776 9.87442 20.7411 9.75788C20.7062 9.6414 20.5907 9.44447 20.4844 9.32027C20.3781 9.19613 20.1667 9.03655 20.0147 8.96579C19.837 8.88305 19.6405 8.83771 19.4648 8.83891C19.3144 8.8399 19.0929 8.87621 18.9726 8.91958Z" fill="#1F7FD9"/>
</svg>
