<svg width="32" height="32" viewBox="0 0 32 32" fill="none" xmlns="http://www.w3.org/2000/svg">
<circle cx="16" cy="16" r="16" fill="#4AA8FF"/>
<path fill-rule="evenodd" clip-rule="evenodd" d="M11.4241 9.0386C11.332 9.05856 11.1899 9.10811 11.1083 9.14871C10.9934 9.20587 10.7736 9.40835 10.1324 10.0479C9.35847 10.8198 9.29861 10.8865 9.20781 11.0786C9.15441 11.1915 9.09013 11.3578 9.06498 11.4482C9.03675 11.5495 9.01363 11.7665 9.00466 12.0144C8.99365 12.3178 9.00139 12.4855 9.0362 12.6988C9.0616 12.8542 9.11827 13.1177 9.16218 13.2844C9.20608 13.4511 9.2909 13.7221 9.35065 13.8867C9.41039 14.0512 9.5085 14.2977 9.56863 14.4344C9.62876 14.5712 9.73409 14.7945 9.8027 14.9306C9.87129 15.0668 10.0227 15.343 10.1391 15.5444C10.2555 15.7458 10.462 16.0769 10.5979 16.2802C10.7338 16.4835 10.9502 16.7915 11.0787 16.9646C11.2072 17.1378 11.4117 17.4027 11.5332 17.5532C11.6546 17.7038 11.8961 17.9872 12.0697 18.1829C12.2434 18.3787 12.5775 18.734 12.8122 18.9725C13.0469 19.211 13.4428 19.5884 13.692 19.8112C13.9411 20.034 14.2845 20.3287 14.455 20.4662C14.6255 20.6036 14.9036 20.8183 15.0731 20.9434C15.2426 21.0684 15.5171 21.2617 15.683 21.3729C15.8489 21.484 16.1576 21.6781 16.3691 21.8042C16.5805 21.9303 16.9635 22.1361 17.2202 22.2616C17.477 22.3871 17.8005 22.5337 17.9392 22.5874C18.0779 22.6412 18.3374 22.7294 18.5158 22.7836C18.6942 22.8377 18.9761 22.9082 19.1422 22.9403C19.3613 22.9826 19.5536 22.999 19.8424 23C20.1355 23.0009 20.297 22.9881 20.4544 22.9513C20.572 22.9238 20.7696 22.8513 20.8937 22.7903C21.107 22.6854 21.1631 22.6356 21.9333 21.8684C22.6044 21.1999 22.7618 21.0286 22.8294 20.8932C22.8745 20.8029 22.9314 20.6621 22.9557 20.5803C22.9806 20.4967 23 20.334 23 20.2088C23 20.0837 22.9806 19.9209 22.9557 19.8374C22.9314 19.7556 22.8804 19.627 22.8424 19.5518C22.7914 19.4507 22.4996 19.1403 21.7266 18.3651C21.1509 17.7877 20.6057 17.2627 20.5151 17.1984C20.4245 17.1341 20.2763 17.0542 20.1857 17.0209C20.0951 16.9875 19.9406 16.9538 19.8424 16.9457C19.7443 16.9377 19.5903 16.9449 19.5002 16.9618C19.4101 16.9786 19.2573 17.0293 19.1605 17.0744C19.0434 17.1291 18.9278 17.2142 18.8152 17.3287C18.6773 17.4689 18.6242 17.551 18.529 17.7716C18.4646 17.9205 18.3786 18.0874 18.3378 18.1426C18.297 18.1977 18.2049 18.2934 18.1331 18.3552C18.0613 18.4171 17.9254 18.5043 17.8311 18.549C17.7367 18.5937 17.5792 18.6447 17.4811 18.6624C17.3818 18.6803 17.2295 18.6869 17.1379 18.6772C17.0473 18.6676 16.8928 18.6342 16.7946 18.6029C16.6965 18.5716 16.4926 18.4871 16.3416 18.4151C16.1906 18.343 15.9435 18.2016 15.7925 18.1009C15.6414 18.0001 15.4063 17.8274 15.2699 17.7172C15.1336 17.6069 14.8883 17.3832 14.7248 17.2201C14.5614 17.057 14.3373 16.8118 14.227 16.6753C14.1166 16.5387 13.9426 16.2984 13.8404 16.1414C13.7382 15.9843 13.6084 15.7573 13.5521 15.6368C13.4958 15.5164 13.4166 15.3193 13.3761 15.1988C13.3357 15.0784 13.296 14.8926 13.288 14.7861C13.28 14.6796 13.287 14.5297 13.3035 14.4532C13.3199 14.3767 13.3664 14.2446 13.4067 14.1597C13.447 14.0748 13.5354 13.9438 13.6033 13.8686C13.6711 13.7934 13.7775 13.6978 13.8397 13.6561C13.9019 13.6145 14.0331 13.5463 14.1313 13.5046C14.2295 13.4629 14.3513 13.4082 14.402 13.383C14.4527 13.3578 14.5503 13.2883 14.619 13.2285C14.6876 13.1687 14.7844 13.0564 14.8341 12.979C14.8838 12.9016 14.9498 12.763 14.9809 12.671C15.0202 12.5548 15.0374 12.4336 15.0374 12.2732C15.0374 12.1213 15.019 11.9832 14.9835 11.8685C14.9538 11.7729 14.8907 11.633 14.8433 11.5577C14.7959 11.4824 14.3105 10.9731 13.7646 10.426C13.2188 9.87877 12.7042 9.37922 12.6211 9.31579C12.5381 9.25236 12.396 9.16817 12.3054 9.1287C12.2148 9.08924 12.0673 9.04366 11.9777 9.02743C11.8881 9.01119 11.7646 8.9989 11.7031 9.00008C11.6417 9.00128 11.5161 9.01861 11.4241 9.0386Z" fill="white"/>
</svg>
