<svg width="32" height="32" viewBox="0 0 32 32" fill="none" xmlns="http://www.w3.org/2000/svg">
<circle cx="16" cy="16" r="16" fill="#4AA8FF"/>
<path fill-rule="evenodd" clip-rule="evenodd" d="M15.3258 8.03257C15.1814 8.04814 14.8946 8.09677 14.6885 8.14066C14.4824 8.18458 14.1871 8.26266 14.0322 8.31423C13.8774 8.36578 13.6131 8.46958 13.445 8.54488C13.2768 8.62021 13.0479 8.73408 12.9363 8.79794C12.8247 8.8618 12.5955 9.0109 12.4268 9.12927C12.2582 9.24761 11.9943 9.45954 11.8405 9.60023C11.6866 9.74089 11.4714 9.96147 11.3622 10.0904C11.253 10.2193 11.076 10.4514 10.9689 10.6062C10.8618 10.7609 10.711 11.007 10.634 11.1532C10.5569 11.2993 10.4401 11.5559 10.3745 11.7234C10.3088 11.8909 10.218 12.1722 10.1728 12.3485C10.1276 12.5249 10.0672 12.852 10.0387 13.0755C10.0023 13.3604 9.99242 13.6126 10.0055 13.9195C10.0158 14.1601 10.0473 14.4837 10.0754 14.6384C10.1036 14.7931 10.1706 15.0775 10.2243 15.2704C10.2779 15.4632 10.3863 15.7797 10.465 15.9737C10.5437 16.1676 10.708 16.5162 10.83 16.7483C10.9521 16.9803 11.163 17.3461 11.2988 17.561C11.4345 17.7758 11.6346 18.0783 11.7434 18.233C11.8521 18.3877 12.1056 18.7323 12.3066 18.9988C12.5077 19.2653 12.9471 19.8375 13.2833 20.2704C13.6195 20.7032 14.0508 21.269 14.2417 21.5276C14.4327 21.7861 14.719 22.1915 14.8779 22.4284C15.0369 22.6653 15.2562 23.0068 15.3652 23.1873C15.4743 23.3678 15.6035 23.5911 15.6524 23.6835C15.7013 23.776 15.7764 23.885 15.8192 23.9258C15.8644 23.9688 15.936 24 15.9897 24C16.0407 24 16.1134 23.9793 16.1512 23.9541C16.1891 23.9288 16.3201 23.7354 16.4423 23.5243C16.5646 23.3131 16.7904 22.9505 16.944 22.7184C17.0977 22.4864 17.3575 22.1136 17.5214 21.8901C17.6852 21.6666 18.3097 20.8619 18.9091 20.1019C19.5084 19.3419 20.153 18.498 20.3415 18.2265C20.53 17.955 20.7972 17.541 20.9353 17.3066C21.0733 17.0721 21.2653 16.7064 21.3618 16.4939C21.4584 16.2814 21.5903 15.9552 21.655 15.7691C21.7197 15.583 21.8106 15.2595 21.857 15.0502C21.9034 14.8409 21.9582 14.4821 21.9789 14.253C22.0076 13.9343 22.0071 13.7289 21.9768 13.3795C21.955 13.1283 21.8992 12.7618 21.8529 12.5652C21.8066 12.3685 21.717 12.0653 21.6537 11.8914C21.5905 11.7175 21.4675 11.4345 21.3803 11.2626C21.2932 11.0907 21.1381 10.8234 21.0357 10.6687C20.9333 10.5139 20.7395 10.2583 20.6051 10.1006C20.4706 9.94281 20.2365 9.70188 20.0848 9.56513C19.9331 9.42838 19.6888 9.23017 19.5418 9.12468C19.3949 9.01918 19.1392 8.85699 18.9738 8.76428C18.8083 8.67154 18.5374 8.53885 18.3718 8.46943C18.2062 8.4 17.9256 8.30095 17.7483 8.24931C17.571 8.19764 17.3152 8.13453 17.1799 8.109C17.0445 8.08349 16.7904 8.04767 16.6151 8.02938C16.4399 8.0111 16.1372 7.998 15.9424 8.00025C15.7477 8.0025 15.4702 8.01704 15.3258 8.03257ZM16.7533 10.8101C16.9067 10.8456 17.1799 10.9421 17.3604 11.0248C17.5408 11.1074 17.7801 11.2411 17.892 11.3218C18.0039 11.4026 18.1924 11.5684 18.3108 11.6903C18.4293 11.8122 18.5916 12.012 18.6714 12.1343C18.7513 12.2565 18.8616 12.464 18.9166 12.5953C18.9717 12.7266 19.0421 12.9306 19.073 13.0485C19.1132 13.2018 19.1292 13.3925 19.1292 13.7163C19.1292 14.04 19.1132 14.2308 19.073 14.384C19.0421 14.502 18.9717 14.706 18.9166 14.8373C18.8616 14.9686 18.7513 15.176 18.6714 15.2983C18.5916 15.4206 18.4291 15.6206 18.3104 15.7427C18.1916 15.8649 17.9966 16.0347 17.877 16.12C17.7574 16.2053 17.5363 16.3333 17.3857 16.4044C17.235 16.4755 16.9684 16.5701 16.7931 16.6147C16.5236 16.6832 16.4034 16.6959 16.0149 16.6967C15.6489 16.6975 15.4963 16.6837 15.2642 16.6289C15.104 16.591 14.8512 16.5057 14.7025 16.4393C14.5537 16.3729 14.3378 16.258 14.2226 16.184C14.1075 16.11 13.9088 15.95 13.7812 15.8284C13.6535 15.7069 13.4894 15.523 13.4165 15.4198C13.3435 15.3167 13.2393 15.1479 13.1848 15.0447C13.1303 14.9416 13.0483 14.7441 13.0025 14.6059C12.9568 14.4676 12.9011 14.211 12.8788 14.0354C12.8465 13.7818 12.8465 13.6507 12.8788 13.3971C12.9011 13.2216 12.9568 12.9649 13.0025 12.8267C13.0483 12.6885 13.1303 12.491 13.1848 12.3878C13.2393 12.2847 13.3435 12.1159 13.4165 12.0127C13.4894 11.9096 13.6535 11.7257 13.7812 11.6041C13.9088 11.4826 14.1018 11.3262 14.2101 11.2568C14.3184 11.1873 14.4957 11.0879 14.6042 11.0358C14.7126 10.9837 14.9267 10.9041 15.08 10.8589C15.2333 10.8137 15.4473 10.7637 15.5555 10.7478C15.6638 10.7318 15.9149 10.7248 16.1134 10.7322C16.3167 10.7398 16.5962 10.7738 16.7533 10.8101Z" fill="white"/>
</svg>
