<svg width="32" height="32" viewBox="0 0 32 32" fill="none" xmlns="http://www.w3.org/2000/svg">
<circle cx="16" cy="16" r="16" fill="#4AA8FF"/>
<path fill-rule="evenodd" clip-rule="evenodd" d="M10.1585 11.042C10.0675 11.0641 9.93729 11.1072 9.86917 11.1379C9.80103 11.1686 9.74567 11.2022 9.74614 11.2124C9.74664 11.2227 11.1177 12.1436 12.7931 13.2588C15.8355 15.2841 15.8393 15.2866 16 15.2866C16.1607 15.2866 16.1645 15.2841 19.2069 13.2588C20.8823 12.1436 22.2534 11.2223 22.2539 11.2115C22.2543 11.2008 22.1866 11.1627 22.1034 11.1269C22.0201 11.0911 21.8899 11.0475 21.8141 11.03C21.7232 11.009 19.741 10.9989 16 11.0001C11.4993 11.0016 10.2896 11.0103 10.1585 11.042ZM9.05193 12.1002C9.01828 12.1811 9.00871 12.9105 9.00189 15.92C8.99598 18.5216 9.00374 19.6894 9.02766 19.8045C9.04646 19.8951 9.10988 20.0652 9.16858 20.1825C9.23682 20.3188 9.34096 20.4583 9.45727 20.5692C9.55731 20.6646 9.71209 20.7796 9.80115 20.8247C9.89025 20.8698 10.0437 20.9277 10.1422 20.9534C10.2978 20.9939 11.0673 21 16 21C20.9327 21 21.7022 20.9939 21.8578 20.9534C21.9563 20.9277 22.1097 20.8698 22.1988 20.8247C22.2879 20.7796 22.4427 20.6646 22.5427 20.5692C22.659 20.4583 22.7632 20.3188 22.8314 20.1825C22.8901 20.0652 22.9535 19.8951 22.9723 19.8045C22.9963 19.6894 23.004 18.5216 22.9981 15.92C22.9913 12.9132 22.9817 12.1811 22.9481 12.1004L22.9066 12.0006L19.7895 14.0738C18.0751 15.2141 16.6132 16.1695 16.5409 16.1969C16.4686 16.2244 16.3173 16.2615 16.2047 16.2795C16.0615 16.3023 15.9366 16.3022 15.7889 16.279C15.6728 16.2607 15.4934 16.2065 15.3902 16.1586C15.287 16.1107 13.828 15.1554 12.148 14.0358L9.09352 12.0002L9.05193 12.1002Z" fill="white"/>
</svg>
