<svg width="43" height="42" viewBox="0 0 43 42" fill="none" xmlns="http://www.w3.org/2000/svg">
<path fill-rule="evenodd" clip-rule="evenodd" d="M19.153 11.0207C19.0651 11.0282 18.8045 11.0606 18.5738 11.0927C18.3432 11.1247 17.9409 11.2043 17.68 11.2695C17.4191 11.3346 16.9967 11.4687 16.7414 11.5674C16.4861 11.6661 16.1513 11.8086 15.9976 11.8842C15.8438 11.9597 15.5606 12.1154 15.3682 12.2302C15.1758 12.3449 14.84 12.571 14.622 12.7327C14.404 12.8943 14.0174 13.2305 13.7629 13.4797C13.5085 13.7289 13.1652 14.1075 13.0001 14.3209C12.835 14.5344 12.6041 14.8632 12.4869 15.0517C12.3698 15.2401 12.2107 15.5174 12.1336 15.668C12.0564 15.8186 11.9107 16.1467 11.8098 16.3972C11.7088 16.6476 11.5718 17.0627 11.5053 17.3195C11.4388 17.5763 11.357 17.961 11.3236 18.1744C11.2902 18.3878 11.2519 18.8176 11.2383 19.1296C11.2237 19.4681 11.233 19.8938 11.2614 20.1856C11.2876 20.4545 11.3449 20.8505 11.3889 21.0657C11.4328 21.2808 11.5217 21.6359 11.5865 21.8547C11.6514 22.0736 11.7858 22.4431 11.8853 22.6756C11.9848 22.9082 12.1488 23.2481 12.2498 23.4309C12.3507 23.6138 12.5366 23.9138 12.6629 24.0978C12.7893 24.2817 13.0063 24.5724 13.1452 24.7437C13.2841 24.9151 13.5609 25.2137 13.7603 25.4073C13.9596 25.6009 14.266 25.8725 14.4411 26.0107C14.6161 26.149 14.9481 26.383 15.1788 26.5307C15.4094 26.6785 15.7959 26.8935 16.0375 27.0085C16.2792 27.1236 16.6495 27.2805 16.8604 27.3572C17.0713 27.434 17.4577 27.5494 17.7191 27.6137C17.9805 27.678 18.3921 27.7598 18.6337 27.7954C18.92 27.8377 19.3307 27.8605 19.812 27.8609C20.2905 27.8614 20.7174 27.8386 21.023 27.7964C21.2826 27.7605 21.6999 27.6804 21.9505 27.6184C22.201 27.5565 22.5638 27.4497 22.7566 27.3811C22.9495 27.3125 23.2833 27.1761 23.4984 27.078L23.8897 26.8997L25.7552 28.7164C27.2256 30.1484 27.6757 30.5643 27.8803 30.6801C28.0231 30.7609 28.2658 30.8659 28.4195 30.9135C28.6375 30.9809 28.796 31 29.1385 31C29.4865 31 29.6402 30.981 29.8774 30.9088C30.0422 30.8586 30.2733 30.7639 30.391 30.6984C30.5087 30.6329 30.7197 30.4742 30.86 30.3457C31.0002 30.2172 31.1874 30.004 31.276 29.8718C31.3645 29.7397 31.4845 29.4907 31.5427 29.3186C31.631 29.0571 31.6489 28.9319 31.6516 28.5559C31.6542 28.1935 31.6376 28.0529 31.5663 27.8323C31.5175 27.6817 31.4102 27.4441 31.3276 27.3043C31.2094 27.1039 30.7847 26.6631 29.3224 25.2232L27.4672 23.3964L27.6493 23.0133C27.7494 22.8026 27.8887 22.4757 27.9587 22.2868C28.0288 22.098 28.1379 21.7428 28.2011 21.4974C28.2644 21.2521 28.3462 20.8434 28.3828 20.5892C28.426 20.2899 28.4492 19.8719 28.4488 19.4033C28.4483 18.932 28.425 18.5298 28.3819 18.2495C28.3454 18.0129 28.2619 17.6098 28.1963 17.3538C28.1306 17.0979 28.0128 16.7195 27.9344 16.5129C27.856 16.3064 27.6958 15.9438 27.5783 15.7071C27.4608 15.4705 27.2413 15.0921 27.0904 14.8662C26.9395 14.6403 26.7006 14.3148 26.5594 14.1429C26.4182 13.9709 26.1195 13.6515 25.8956 13.4331C25.6718 13.2147 25.2854 12.8873 25.0369 12.7055C24.7884 12.5237 24.4501 12.2954 24.2852 12.1983C24.1203 12.1011 23.8765 11.9678 23.7435 11.902C23.6105 11.8363 23.3248 11.7104 23.1086 11.6223C22.8925 11.5342 22.5341 11.4106 22.3123 11.3476C22.0905 11.2846 21.7293 11.198 21.5096 11.1552C21.2899 11.1124 20.9138 11.0586 20.6738 11.0356C20.4339 11.0127 20.0294 10.9969 19.7751 11.0005C19.5208 11.0041 19.2409 11.0132 19.153 11.0207ZM20.574 14.8289C20.7185 14.8487 20.9953 14.9098 21.1891 14.9648C21.383 15.0198 21.676 15.1257 21.8405 15.2001C22.0049 15.2744 22.2936 15.4358 22.482 15.5586C22.6705 15.6814 22.9586 15.9059 23.1223 16.0574C23.286 16.2089 23.5229 16.4684 23.6489 16.634C23.7748 16.7995 23.9323 17.0283 23.999 17.1424C24.0657 17.2565 24.1777 17.4906 24.2481 17.6626C24.3184 17.8346 24.4079 18.0898 24.4469 18.2298C24.486 18.3697 24.5375 18.6108 24.5615 18.7655C24.5855 18.9202 24.6051 19.2303 24.6051 19.4546C24.6051 19.6789 24.5783 20.013 24.5455 20.197C24.5127 20.381 24.4387 20.6781 24.381 20.8572C24.3232 21.0364 24.1989 21.3326 24.1047 21.5155C24.0105 21.6983 23.8384 21.98 23.7222 22.1413C23.606 22.3026 23.3752 22.5676 23.2093 22.7301C23.0433 22.8926 22.7727 23.1186 22.608 23.2324C22.4432 23.3462 22.1556 23.5148 21.9689 23.607C21.7822 23.6993 21.4797 23.821 21.2967 23.8775C21.1137 23.9341 20.8103 24.0065 20.6225 24.0387C20.4346 24.0707 20.0935 24.097 19.8644 24.097C19.6353 24.097 19.3186 24.0778 19.1607 24.0543C19.0026 24.0308 18.7565 23.9803 18.6136 23.9421C18.4707 23.9039 18.2101 23.8163 18.0345 23.7474C17.8588 23.6785 17.6197 23.5687 17.5032 23.5035C17.3867 23.4382 17.153 23.2839 16.984 23.1606C16.8149 23.0373 16.55 22.8052 16.3952 22.645C16.2405 22.4847 16.0112 22.2025 15.8858 22.018C15.7604 21.8334 15.5956 21.5507 15.5197 21.3897C15.4437 21.2287 15.336 20.9429 15.2803 20.7547C15.2246 20.5664 15.1595 20.2953 15.1358 20.1523C15.112 20.0093 15.093 19.6811 15.0937 19.4229C15.0943 19.1648 15.1234 18.7961 15.1583 18.6036C15.1933 18.4112 15.2681 18.1208 15.3248 17.9583C15.3814 17.7957 15.5098 17.5059 15.6103 17.3141C15.7106 17.1223 15.8942 16.8319 16.0183 16.6687C16.1423 16.5055 16.3501 16.2679 16.4801 16.1406C16.6102 16.0132 16.852 15.8103 17.0175 15.6897C17.1831 15.569 17.4617 15.3974 17.6366 15.3084C17.8116 15.2193 18.0733 15.1028 18.2183 15.0494C18.3632 14.996 18.6173 14.9229 18.7829 14.8868C18.9484 14.8507 19.2433 14.8079 19.438 14.7917C19.6327 14.7755 19.9089 14.7691 20.0517 14.7776C20.1945 14.7861 20.4295 14.8092 20.574 14.8289Z" fill="#4AA8FF"/>
</svg>
