<svg width="76" height="76" viewBox="0 0 76 76" fill="none" xmlns="http://www.w3.org/2000/svg">
<g filter="url(#filter0_d_834_2812)">
<rect x="17" y="13" width="42" height="42" rx="21" fill="#1B91E3"/>
</g>
<path fill-rule="evenodd" clip-rule="evenodd" d="M35.3413 24.0679C35.231 24.1072 35.0405 24.2348 34.918 24.3512C34.7088 24.5501 34.651 24.6665 33.966 26.268C33.5648 27.2057 32.8586 28.8568 32.3965 29.9371L31.5564 31.9012L29.2588 31.9149L26.9612 31.9286L26.7326 32.0418C26.6068 32.1041 26.4221 32.2452 26.3221 32.3554C26.2184 32.4695 26.1101 32.6541 26.0701 32.7846C26.0316 32.9105 26 33.0909 26 33.1855C26 33.28 26.042 33.4662 26.0933 33.5992C26.1504 33.7471 26.2642 33.9137 26.3864 34.028C26.4962 34.1307 26.66 34.2514 26.7502 34.2962C26.857 34.3492 27.0579 34.3846 27.3252 34.3976C27.6973 34.4158 27.7381 34.4268 27.7587 34.5144C27.7711 34.5676 28.0769 36.1823 28.4382 38.1025C28.7994 40.0229 29.1389 41.7202 29.1925 41.8746C29.2461 42.0289 29.3448 42.248 29.4119 42.3615C29.479 42.475 29.6149 42.6701 29.7138 42.7951C29.8127 42.9202 30.0251 43.1313 30.1858 43.2643C30.3465 43.3972 30.6467 43.5846 30.853 43.6807C31.0594 43.7768 31.38 43.8879 31.5656 43.9277C31.8646 43.9917 32.5999 44 38.0037 44C43.4075 44 44.1427 43.9917 44.4417 43.9277C44.6273 43.8879 44.948 43.7768 45.1543 43.6807C45.3606 43.5846 45.6619 43.3972 45.8237 43.2643C45.9856 43.1313 46.2111 42.9007 46.3248 42.7519C46.4384 42.6032 46.5891 42.3679 46.6594 42.2291C46.7298 42.0903 46.8162 41.8847 46.8514 41.7721C46.8867 41.6596 47.2101 40.0023 47.5702 38.0893C47.9303 36.1763 48.236 34.5651 48.2495 34.5088C48.2722 34.4148 48.3007 34.4065 48.5998 34.4065C48.8123 34.4065 49.0138 34.3744 49.18 34.3141C49.3512 34.252 49.5032 34.1507 49.6438 34.0049C49.7742 33.8697 49.8842 33.6969 49.936 33.5455C49.9938 33.3768 50.0112 33.2286 49.9932 33.0593C49.9789 32.9253 49.9203 32.7244 49.8629 32.613C49.8055 32.5015 49.6931 32.3497 49.6133 32.2757C49.5334 32.2017 49.3732 32.0933 49.2571 32.0348L49.0461 31.9286L46.748 31.9152L44.4499 31.9019L42.8805 28.2324C41.3877 24.7421 41.3006 24.5527 41.0965 24.3535C40.952 24.2125 40.8002 24.1178 40.632 24.0636C40.4562 24.007 40.2968 23.9898 40.0941 24.0056C39.9357 24.0179 39.7209 24.0701 39.6168 24.1217C39.5126 24.1732 39.3477 24.3009 39.2502 24.4055C39.1527 24.5102 39.0454 24.66 39.0117 24.7385C38.978 24.817 38.9357 24.9764 38.9178 25.0928C38.8959 25.2352 38.9092 25.3843 38.9586 25.5488C38.9988 25.6833 39.6205 27.1686 40.34 28.8495L41.6482 31.9058H37.9956C34.5319 31.9058 34.3452 31.9017 34.3858 31.8263C34.4094 31.7825 35.0096 30.3861 35.7197 28.7232C36.4298 27.0602 37.0355 25.609 37.0658 25.4982C37.0977 25.3817 37.1074 25.2094 37.0889 25.089C37.0714 24.9747 37.0294 24.817 36.9956 24.7385C36.9619 24.66 36.8546 24.5102 36.7571 24.4055C36.6597 24.3009 36.4941 24.1727 36.3892 24.1205C36.2639 24.0582 36.0858 24.0207 35.8702 24.011C35.6536 24.0013 35.4738 24.0206 35.3413 24.0679Z" fill="white"/>
<defs>
<filter id="filter0_d_834_2812" x="0" y="0" width="76" height="76" filterUnits="userSpaceOnUse" color-interpolation-filters="sRGB">
<feFlood flood-opacity="0" result="BackgroundImageFix"/>
<feColorMatrix in="SourceAlpha" type="matrix" values="0 0 0 0 0 0 0 0 0 0 0 0 0 0 0 0 0 0 127 0" result="hardAlpha"/>
<feOffset dy="4"/>
<feGaussianBlur stdDeviation="8.5"/>
<feColorMatrix type="matrix" values="0 0 0 0 0.105882 0 0 0 0 0.568628 0 0 0 0 0.890196 0 0 0 0.44 0"/>
<feBlend mode="normal" in2="BackgroundImageFix" result="effect1_dropShadow_834_2812"/>
<feBlend mode="normal" in="SourceGraphic" in2="effect1_dropShadow_834_2812" result="shape"/>
</filter>
</defs>
</svg>
