<svg width="76" height="76" viewBox="0 0 76 76" fill="none" xmlns="http://www.w3.org/2000/svg">
<g filter="url(#filter0_d_325_19138)">
<rect x="17" y="13" width="42" height="42" rx="21" fill="#1B91E3"/>
</g>
<path fill-rule="evenodd" clip-rule="evenodd" d="M35.7585 24.0207C35.6724 24.0282 35.4171 24.0606 35.1912 24.0927C34.9653 24.1247 34.5714 24.2043 34.3158 24.2695C34.0602 24.3346 33.6465 24.4687 33.3965 24.5674C33.1464 24.6661 32.8186 24.8086 32.668 24.8842C32.5174 24.9597 32.24 25.1154 32.0515 25.2302C31.8631 25.3449 31.5342 25.571 31.3207 25.7327C31.1072 25.8943 30.7286 26.2305 30.4794 26.4797C30.2301 26.7289 29.8939 27.1075 29.7322 27.3209C29.5705 27.5344 29.3443 27.8632 29.2296 28.0517C29.1149 28.2401 28.9591 28.5174 28.8836 28.668C28.808 28.8186 28.6653 29.1467 28.5664 29.3972C28.4676 29.6476 28.3333 30.0627 28.2682 30.3195C28.2031 30.5763 28.123 30.961 28.0903 31.1744C28.0575 31.3878 28.02 31.8176 28.0067 32.1296C27.9924 32.4681 28.0015 32.8938 28.0293 33.1856C28.055 33.4545 28.1111 33.8505 28.1542 34.0657C28.1972 34.2808 28.2843 34.6359 28.3478 34.8547C28.4113 35.0736 28.5429 35.4431 28.6404 35.6756C28.7379 35.9082 28.8985 36.2481 28.9974 36.4309C29.0963 36.6138 29.2783 36.9138 29.402 37.0978C29.5257 37.2817 29.7383 37.5724 29.8743 37.7437C30.0104 37.9151 30.2815 38.2137 30.4768 38.4073C30.672 38.6009 30.9721 38.8725 31.1435 39.0107C31.315 39.149 31.6401 39.383 31.866 39.5307C32.092 39.6785 32.4704 39.8935 32.7071 40.0085C32.9438 40.1236 33.3065 40.2805 33.513 40.3572C33.7196 40.434 34.0981 40.5494 34.3541 40.6137C34.6101 40.678 35.0132 40.7598 35.2499 40.7954C35.5302 40.8377 35.9325 40.8605 36.4039 40.8609C36.8725 40.8614 37.2906 40.8386 37.5899 40.7964C37.8442 40.7605 38.253 40.6804 38.4984 40.6184C38.7437 40.5565 39.099 40.4497 39.2879 40.3811C39.4768 40.3125 39.8037 40.1761 40.0144 40.078L40.3976 39.8997L42.2247 41.7164C43.6649 43.1484 44.1057 43.5643 44.3061 43.6801C44.446 43.7609 44.6836 43.8659 44.8342 43.9135C45.0477 43.9809 45.203 44 45.5384 44C45.8792 44 46.0297 43.981 46.2621 43.9088C46.4235 43.8586 46.6498 43.7639 46.7651 43.6984C46.8804 43.6329 47.087 43.4742 47.2244 43.3457C47.3617 43.2172 47.5451 43.004 47.6318 42.8718C47.7186 42.7397 47.8361 42.4907 47.8931 42.3186C47.9796 42.0571 47.9971 41.9319 47.9998 41.5559C48.0023 41.1935 47.9861 41.0529 47.9162 40.8323C47.8684 40.6817 47.7633 40.4441 47.6825 40.3043C47.5666 40.1039 47.1507 39.6631 45.7185 38.2232L43.9015 36.3964L44.0798 36.0133C44.1779 35.8026 44.3143 35.4757 44.3829 35.2868C44.4515 35.098 44.5584 34.7428 44.6203 34.4974C44.6823 34.2521 44.7624 33.8434 44.7983 33.5892C44.8405 33.2899 44.8633 32.8719 44.8629 32.4033C44.8624 31.932 44.8396 31.5298 44.7973 31.2495C44.7617 31.0129 44.6799 30.6098 44.6155 30.3538C44.5512 30.0979 44.4358 29.7195 44.3591 29.5129C44.2823 29.3064 44.1254 28.9438 44.0103 28.7071C43.8952 28.4705 43.6802 28.0921 43.5324 27.8662C43.3847 27.6403 43.1507 27.3148 43.0123 27.1429C42.8741 26.9709 42.5815 26.6515 42.3623 26.4331C42.1431 26.2147 41.7646 25.8873 41.5212 25.7055C41.2779 25.5237 40.9465 25.2954 40.785 25.1983C40.6235 25.1011 40.3847 24.9678 40.2544 24.902C40.1242 24.8363 39.8443 24.7104 39.6327 24.6223C39.421 24.5342 39.07 24.4106 38.8527 24.3476C38.6355 24.2846 38.2817 24.198 38.0665 24.1552C37.8514 24.1124 37.483 24.0586 37.248 24.0356C37.0129 24.0127 36.6169 23.9969 36.3678 24.0005C36.1187 24.0041 35.8445 24.0132 35.7585 24.0207ZM37.1502 27.8289C37.2917 27.8487 37.5628 27.9098 37.7527 27.9648C37.9425 28.0198 38.2296 28.1257 38.3906 28.2001C38.5516 28.2744 38.8344 28.4358 39.019 28.5586C39.2035 28.6814 39.4857 28.9059 39.6461 29.0574C39.8064 29.2089 40.0384 29.4684 40.1618 29.634C40.2851 29.7995 40.4394 30.0283 40.5047 30.1424C40.57 30.2565 40.6798 30.4906 40.7486 30.6626C40.8175 30.8346 40.9052 31.0898 40.9434 31.2298C40.9816 31.3697 41.0321 31.6108 41.0556 31.7655C41.0791 31.9202 41.0983 32.2303 41.0983 32.4546C41.0983 32.6789 41.072 33.013 41.04 33.197C41.0078 33.381 40.9354 33.6781 40.8788 33.8572C40.8223 34.0364 40.7005 34.3326 40.6082 34.5155C40.516 34.6983 40.3474 34.98 40.2336 35.1413C40.1198 35.3026 39.8937 35.5676 39.7312 35.7301C39.5687 35.8926 39.3037 36.1186 39.1423 36.2324C38.9809 36.3462 38.6993 36.5148 38.5164 36.607C38.3335 36.6993 38.0373 36.821 37.858 36.8775C37.6788 36.9341 37.3817 37.0065 37.1977 37.0387C37.0136 37.0707 36.6796 37.097 36.4552 37.097C36.2308 37.097 35.9207 37.0778 35.766 37.0543C35.6112 37.0308 35.3701 36.9803 35.2302 36.9421C35.0902 36.9039 34.835 36.8163 34.6629 36.7474C34.4909 36.6785 34.2568 36.5687 34.1427 36.5035C34.0285 36.4382 33.7997 36.2839 33.6341 36.1606C33.4685 36.0373 33.209 35.8052 33.0574 35.645C32.9059 35.4847 32.6814 35.2025 32.5585 35.018C32.4357 34.8334 32.2743 34.5507 32.2 34.3897C32.1256 34.2287 32.0201 33.9429 31.9655 33.7547C31.9109 33.5664 31.8472 33.2953 31.824 33.1523C31.8007 33.0093 31.7821 32.6811 31.7827 32.4229C31.7833 32.1648 31.8118 31.7961 31.8461 31.6036C31.8802 31.4112 31.9536 31.1208 32.0091 30.9583C32.0645 30.7957 32.1903 30.5059 32.2887 30.3141C32.387 30.1223 32.5668 29.8319 32.6883 29.6687C32.8097 29.5055 33.0133 29.2679 33.1406 29.1406C33.268 29.0132 33.5048 28.8103 33.667 28.6897C33.8291 28.569 34.102 28.3974 34.2733 28.3084C34.4447 28.2193 34.701 28.1028 34.843 28.0494C34.9849 27.996 35.2338 27.9229 35.396 27.8868C35.5581 27.8507 35.8469 27.8079 36.0376 27.7917C36.2283 27.7755 36.4988 27.7691 36.6386 27.7776C36.7785 27.7861 37.0087 27.8092 37.1502 27.8289Z" fill="white"/>
<defs>
<filter id="filter0_d_325_19138" x="0" y="0" width="76" height="76" filterUnits="userSpaceOnUse" color-interpolation-filters="sRGB">
<feFlood flood-opacity="0" result="BackgroundImageFix"/>
<feColorMatrix in="SourceAlpha" type="matrix" values="0 0 0 0 0 0 0 0 0 0 0 0 0 0 0 0 0 0 127 0" result="hardAlpha"/>
<feOffset dy="4"/>
<feGaussianBlur stdDeviation="8.5"/>
<feColorMatrix type="matrix" values="0 0 0 0 0.105882 0 0 0 0 0.568628 0 0 0 0 0.890196 0 0 0 0.44 0"/>
<feBlend mode="normal" in2="BackgroundImageFix" result="effect1_dropShadow_325_19138"/>
<feBlend mode="normal" in="SourceGraphic" in2="effect1_dropShadow_325_19138" result="shape"/>
</filter>
</defs>
</svg>
