<svg width="100" height="100" viewBox="0 0 100 100" fill="none" xmlns="http://www.w3.org/2000/svg">
<path d="M70.387 70L66.533 77.247L85.403 74.162C81.595 72.252 76.44 70.887 70.387 70ZM21.777 71.58C13.037 73.885 7.5 77.662 7.5 83.272C7.5036 84.4798 7.7676 85.6725 8.274 86.769L38.559 81.819L21.777 71.58ZM91.79 80L49.64 86.87L60.756 99.516C79.01 97.881 92.5 92.05 92.5 83.272C92.5 82.102 92.248 81.015 91.79 80.001V80ZM42.518 88.055L14.038 92.71C21.566 97.374 34.853 100 50 100C50.918 100 51.815 99.974 52.719 99.955L42.518 88.055Z" fill="white"/>
<path d="M50.0019 0C33.7019 0 20.3269 13.332 20.3269 29.595C20.3269 35.897 22.3439 41.768 25.7479 46.579L25.6459 46.42L44.9049 79.711L44.9849 79.818C45.7449 80.809 46.4849 81.59 47.3559 82.166C48.2259 82.741 49.3059 83.087 50.3649 82.981C52.4829 82.769 53.7809 81.273 55.0119 79.604L55.0769 79.517L76.3119 43.377L76.3249 43.353C76.8229 42.453 77.1899 41.538 77.5019 40.646C78.9343 37.1377 79.6713 33.3845 79.6719 29.595C79.6729 13.332 66.3029 0 50.0029 0H50.0019ZM50.0019 4.15C64.0419 4.15 75.5219 15.605 75.5219 29.595C75.5219 32.962 74.8539 36.175 73.6449 39.125L73.6229 39.177L73.6049 39.229C73.3349 40.003 73.0419 40.715 72.6939 41.345L51.6389 77.175C50.6669 78.469 49.9569 78.851 49.9509 78.852C49.9479 78.852 49.9369 78.897 49.6469 78.704C49.3659 78.519 48.8869 78.062 48.3289 77.344L29.1889 44.26L29.1359 44.184C26.2039 40.039 24.4769 35.015 24.4769 29.596C24.4769 15.606 35.9619 4.151 50.0019 4.151V4.15ZM50.0019 12.896C40.7359 12.896 33.2589 20.346 33.2589 29.595C33.2589 38.844 40.7359 46.294 50.0019 46.294C59.2669 46.294 66.7419 38.844 66.7419 29.594C66.7419 20.346 59.2679 12.896 50.0019 12.896ZM50.0019 17.046C57.0719 17.046 62.5919 22.553 62.5919 29.595C62.5919 36.637 57.0729 42.144 50.0019 42.144C42.9299 42.144 37.4089 36.636 37.4089 29.594C37.4089 22.554 42.9299 17.046 50.0019 17.046Z" fill="white"/>
</svg>
