<svg width="96" height="106" viewBox="0 0 96 106" fill="none" xmlns="http://www.w3.org/2000/svg">
<path d="M24.3907 58.2605C23.6946 58.2605 23.0269 58.5371 22.5346 59.0293C22.0423 59.5216 21.7657 60.1893 21.7657 60.8855V76.6355C21.7657 77.3317 22.0423 77.9994 22.5346 78.4917C23.0269 78.9839 23.6946 79.2605 24.3907 79.2605C25.0869 79.2605 25.7546 78.9839 26.2469 78.4917C26.7392 77.9994 27.0158 77.3317 27.0158 76.6355V74.0105H29.625C31.7136 74.0105 33.7166 73.1808 35.1935 71.704C36.6703 70.2271 37.5 68.2241 37.5 66.1355C37.5 64.0469 36.6703 62.0439 35.1935 60.567C33.7166 59.0902 31.7136 58.2605 29.625 58.2605H24.3907ZM29.625 68.7605H27.0158V63.5105H29.625C30.3212 63.5105 30.9889 63.7871 31.4812 64.2793C31.9734 64.7716 32.25 65.4393 32.25 66.1355C32.25 66.8317 31.9734 67.4994 31.4812 67.9917C30.9889 68.4839 30.3212 68.7605 29.625 68.7605ZM63.7395 60.8855C63.7395 60.1893 64.0161 59.5216 64.5083 59.0293C65.0006 58.5371 65.6683 58.2605 66.3645 58.2605H74.2658C74.9619 58.2605 75.6296 58.5371 76.1219 59.0293C76.6142 59.5216 76.8908 60.1893 76.8908 60.8855C76.8908 61.5817 76.6142 62.2494 76.1219 62.7417C75.6296 63.2339 74.9619 63.5105 74.2658 63.5105H68.9842L68.979 68.771H74.2658C74.9619 68.771 75.6296 69.0476 76.1219 69.5398C76.6142 70.0321 76.8908 70.6998 76.8908 71.396C76.8908 72.0922 76.6142 72.7599 76.1219 73.2522C75.6296 73.7444 74.9619 74.021 74.2658 74.021H68.979L68.9895 76.6302C68.9902 76.975 68.923 77.3164 68.7917 77.6352C68.6604 77.9539 68.4676 78.2437 68.2244 78.4879C67.7331 78.9812 67.0659 79.2591 66.3698 79.2605C65.6736 79.2619 65.0053 78.9867 64.5121 78.4954C64.0188 78.0041 63.7409 77.3369 63.7395 76.6408L63.7238 71.4013V71.3908L63.7395 60.8803V60.8855ZM45.375 58.2605H47.9895C50.7743 58.2605 53.445 59.3667 55.4141 61.3359C57.3833 63.305 58.4895 65.9757 58.4895 68.7605C58.4895 71.5453 57.3833 74.216 55.4141 76.1851C53.445 78.1543 50.7743 79.2605 47.9895 79.2605H45.375C44.6788 79.2605 44.0111 78.9839 43.5188 78.4917C43.0266 77.9994 42.75 77.3317 42.75 76.6355V60.8855C42.75 60.1893 43.0266 59.5216 43.5188 59.0293C44.0111 58.5371 44.6788 58.2605 45.375 58.2605ZM48 74.0105C49.3924 74.0105 50.7277 73.4574 51.7123 72.4728C52.6969 71.4882 53.25 70.1529 53.25 68.7605C53.25 67.3681 52.6969 66.0328 51.7123 65.0482C50.7277 64.0636 49.3924 63.5105 48 63.5105V74.0105ZM48 32V0.5H16.5C13.7152 0.5 11.0445 1.60625 9.07538 3.57538C7.10625 5.54451 6 8.21523 6 11V46.007C2.89725 47.4823 0.75 50.648 0.75 54.3125V83.1875C0.75 86.852 2.89725 90.0125 6 91.493V95C6 97.7848 7.10625 100.455 9.07538 102.425C11.0445 104.394 13.7152 105.5 16.5 105.5H79.5C82.2848 105.5 84.9555 104.394 86.9246 102.425C88.8938 100.455 90 97.7848 90 95V91.493C93.1028 90.0178 95.25 86.852 95.25 83.1875V54.3125C95.25 50.648 93.1028 47.4875 90 46.007V42.5H58.5C55.7152 42.5 53.0445 41.3937 51.0754 39.4246C49.1063 37.4555 48 34.7848 48 32ZM9.9375 53H86.0625C86.4106 53 86.7444 53.1383 86.9906 53.3844C87.2367 53.6306 87.375 53.9644 87.375 54.3125V83.1875C87.375 83.5356 87.2367 83.8694 86.9906 84.1156C86.7444 84.3617 86.4106 84.5 86.0625 84.5H9.9375C9.5894 84.5 9.25556 84.3617 9.00942 84.1156C8.76328 83.8694 8.625 83.5356 8.625 83.1875V54.3125C8.625 53.9644 8.76328 53.6306 9.00942 53.3844C9.25556 53.1383 9.5894 53 9.9375 53ZM55.875 32V3.125L87.375 34.625H58.5C57.8038 34.625 57.1361 34.3484 56.6438 33.8562C56.1516 33.3639 55.875 32.6962 55.875 32Z" fill="#949494"/>
</svg>
