<svg width="94" height="69" viewBox="0 0 94 69" fill="none" xmlns="http://www.w3.org/2000/svg">
<mask id="mask0_116_256" style="mask-type:alpha" maskUnits="userSpaceOnUse" x="0" y="0" width="94" height="69">
<rect width="94" height="69" fill="#C4C4C4"/>
</mask>
<g mask="url(#mask0_116_256)">
<path fill-rule="evenodd" clip-rule="evenodd" d="M37.8571 0.0308243C37.6449 0.0687947 37.0603 0.174062 36.5581 0.26513C34.2802 0.677556 31.5732 1.90388 29.5993 3.41744C29.0051 3.87324 26.2789 6.49243 23.541 9.23818C17.8373 14.9583 18.0457 14.6295 19.2578 15.9943C20.0925 16.9341 20.1895 17.6235 19.5734 18.2393C18.9576 18.8553 18.2682 18.7584 17.3284 17.9237C16.0883 16.8222 15.9453 16.869 13.6734 19.1148C11.4794 21.2839 11 22.0529 11 23.4031C11 24.923 11.3385 25.3733 15.8959 29.916C20.3932 34.3988 20.7457 34.6614 22.276 34.6674C23.6151 34.6726 24.3872 34.1911 26.556 31.9974C28.7765 29.7511 28.8487 29.5488 27.8243 28.4375C27.3205 27.8909 27.2069 27.6551 27.2069 27.1557C27.2069 26.3463 27.6908 25.8728 28.5182 25.8728C29.0562 25.8728 29.2404 25.995 30.3803 27.1076C31.9294 28.6196 32.2463 28.6832 33.3169 27.6964L34.0175 27.0506L37.1332 30.1662L40.2488 33.2818L34.5284 39.0022L28.808 44.7227L27.7466 44.5378C26.506 44.3217 24.2808 44.4272 23.0371 44.761C19.8437 45.6181 17.3637 47.3887 15.6239 50.054C14.2124 52.2162 13.6979 54.061 13.7155 56.8974C13.7269 58.7212 13.7803 59.139 14.1435 60.2466C14.4326 61.1284 14.6851 61.6117 14.9764 61.8408C15.7583 62.4558 16.0485 62.2612 19.5236 58.7909L22.722 55.5968L24.4891 56.0279L26.2562 56.4588L26.6872 58.226L27.1183 59.993L23.9241 63.1915C20.4539 66.6665 20.2592 66.9567 20.8743 67.7387C21.1034 68.0299 21.5866 68.2825 22.4684 68.5716C23.5761 68.9347 23.9939 68.9882 25.8177 68.9996C28.6541 69.0172 30.4989 68.5027 32.661 67.0912C35.3264 65.3513 37.0969 62.8714 37.954 59.678C38.2879 58.4342 38.3933 56.2091 38.1772 54.9684L37.9923 53.9071L43.7121 48.1873L49.4319 42.4675L58.4267 51.4576C66.6544 59.6806 67.4646 60.4474 67.927 60.4474C68.6062 60.4474 69.1904 59.8626 69.1904 59.1827C69.1904 58.7158 67.8739 57.359 52.4827 41.9653L35.7749 25.2549L38.5912 22.4386L41.4075 19.6223L61.6429 39.8419C78.0106 56.1968 81.9489 60.2091 82.2471 60.8333C82.9554 62.3154 82.6012 64.332 81.4422 65.4162C80.3324 66.4545 78.4414 66.7698 77.0623 66.1464C76.6088 65.9414 75.6401 65.1122 74.2716 63.7573C72.4543 61.9582 72.1095 61.6822 71.6791 61.6822C71.0097 61.6822 70.4252 62.2717 70.4252 62.9468C70.4252 63.3941 70.6834 63.7092 72.6247 65.6305C75.0482 68.0292 75.8125 68.5209 77.5891 68.8253C81.8577 69.5565 85.7083 65.7059 84.9771 61.4373C84.6007 59.2393 85.1241 59.8308 71.2937 45.9761L58.6198 33.2798L63.1046 28.7949L67.5895 24.3103L68.6506 24.495C69.8913 24.7111 72.1164 24.6057 73.3602 24.2718C76.5536 23.4147 79.0335 21.6442 80.7734 18.9788C82.1849 16.8167 82.6994 14.9719 82.6818 12.1355C82.6703 10.3117 82.6169 9.89387 82.2538 8.78624C81.9647 7.90443 81.7121 7.42116 81.4209 7.1921C80.6389 6.57701 80.3487 6.77165 76.8737 10.2419L73.6752 13.4361L71.9082 13.005L70.141 12.574L69.7107 10.8096L69.2804 9.04524L72.5539 5.75864C76.1029 2.19575 76.2185 2.01655 75.4581 1.25622C74.647 0.445103 71.7478 -0.0787653 69.1838 0.122354C67.7602 0.234105 65.6187 0.860308 64.8152 1.39976C63.8594 2.04156 64.2337 3.64619 65.3393 3.64619C65.5687 3.64619 66.1296 3.48104 66.586 3.27915C67.0424 3.07741 67.8324 2.82427 68.3418 2.71684C69.3001 2.51464 71.907 2.45259 72.0822 2.62778C72.137 2.68258 70.9531 3.96292 69.4512 5.47325C67.5492 7.38581 66.7208 8.3235 66.7208 8.56351C66.7208 9.01622 67.9138 13.813 68.1343 14.2476C68.2285 14.433 68.4873 14.6567 68.7094 14.7447C69.2625 14.9635 74.0515 16.1486 74.3831 16.1486C74.5302 16.1486 75.8744 14.9314 77.3704 13.4438C78.8665 11.9562 80.1384 10.7869 80.197 10.8456C80.2557 10.9042 80.3024 11.4789 80.3011 12.1227C80.2864 18.5295 74.5368 23.2463 68.3415 21.9342C67.7474 21.8082 67.1247 21.7053 66.958 21.7053C66.766 21.7053 64.8533 23.5036 61.7471 26.6041L56.8395 31.5029L54.0259 28.6892L51.2122 25.8755L56.111 20.9679C59.2114 17.8618 61.0098 15.9491 61.0098 15.757C61.0098 15.5904 60.9068 14.9677 60.7809 14.3736C60.2098 11.6774 60.8354 8.7404 62.4574 6.50215C63.1198 5.58808 63.1705 5.02115 62.6374 4.48818C61.805 3.65576 60.9894 4.08933 59.8455 5.97226C58.3534 8.42876 57.7294 12.0176 58.3177 14.7595C58.3904 15.0989 57.8609 15.684 53.9167 19.6208L49.433 24.0962L46.3177 20.9809L43.2024 17.8656L43.8482 17.165C44.9307 15.9907 44.8856 15.8821 42.1789 13.1388C40.0549 10.9859 39.8637 10.746 39.8637 10.2344C39.8637 9.15313 41.3072 8.05029 43.3514 7.5698C44.1529 7.38134 44.9143 7.33642 46.4236 7.38828C48.2232 7.45018 48.6026 7.51547 50.1022 8.02143C51.0219 8.33152 51.9106 8.58543 52.0772 8.58543C52.5529 8.58543 53.1379 7.89919 53.1379 7.34121C53.1379 6.94715 52.9252 6.63366 52.0188 5.69119C48.6563 2.19545 44.3738 0.172673 40.018 0.0231069C39.0417 -0.0105417 38.0693 -0.00699173 37.8571 0.0308243ZM41.4675 2.6443C43.17 2.94112 44.4142 3.3645 45.9405 4.16589L47.1552 4.80383L45.1687 4.90261C42.7905 5.02084 41.1598 5.4805 39.7297 6.43547C38.121 7.5096 37.3916 8.6995 37.3974 10.2398C37.4025 11.6005 37.798 12.2752 39.749 14.2527L41.4754 16.0026L36.8226 20.6554L32.1699 25.3081L31.3146 24.5264C29.9852 23.3115 28.6559 22.9841 27.1436 23.4995C26.4249 23.7444 25.4198 24.5608 25.0767 25.1782C24.9194 25.4613 24.7098 25.2915 22.5445 23.1262C20.3793 20.961 20.2095 20.7514 20.4926 20.5941C21.1355 20.2369 21.9356 19.231 22.1928 18.4571C22.5217 17.4668 22.443 16.4541 21.9599 15.4559L21.6024 14.7173L26.3726 9.97505C30.4132 5.95806 31.3318 5.12272 32.3776 4.5138C35.4764 2.70959 38.3973 2.10885 41.4675 2.6443ZM20.8001 24.9454L25.4275 29.5747L24.1211 30.8879C22.1463 32.8729 22.5956 33.0669 17.5996 28.0733C12.6173 23.0937 12.8107 23.5317 14.7396 21.5928C15.4381 20.8906 16.0464 20.3161 16.0911 20.3161C16.136 20.3161 18.255 22.3992 20.8001 24.9454ZM44.8796 37.9117L47.6542 40.6896L41.5208 46.83C37.5967 50.7585 35.3875 53.0799 35.3875 53.2746C35.3875 53.442 35.4904 54.0652 35.6164 54.6593C36.9146 60.7887 32.2168 66.6131 25.9721 66.6167C23.9754 66.6178 23.9322 66.7447 26.9635 63.6965C29.0066 61.642 29.6756 60.8753 29.6726 60.5921C29.6648 59.8106 28.3097 54.8446 28.0293 54.5688C27.7077 54.2525 23.0675 53.0386 22.1804 53.0386C21.6524 53.0386 21.4468 53.2128 18.9776 55.7539C16.0405 58.7766 16.1217 58.7465 16.1072 56.8202C16.0874 54.2167 17.1101 51.705 18.9287 49.8904C21.4286 47.3961 24.6199 46.4063 27.972 47.0854C28.684 47.2297 29.4109 47.3106 29.5873 47.2651C29.7637 47.2197 32.6166 44.4716 35.9269 41.1582C39.2375 37.8449 41.9817 35.1338 42.0255 35.1338C42.0692 35.1338 43.3535 36.3839 44.8796 37.9117Z" fill="#4AA8FF"/>
</g>
</svg>
