<svg width="94" height="69" viewBox="0 0 94 69" fill="none" xmlns="http://www.w3.org/2000/svg">
<mask id="mask0_116_258" style="mask-type:alpha" maskUnits="userSpaceOnUse" x="0" y="0" width="94" height="69">
<rect width="94" height="69" fill="#C4C4C4"/>
</mask>
<g mask="url(#mask0_116_258)">
<path fill-rule="evenodd" clip-rule="evenodd" d="M16.0631 0.287487C10.9569 1.23537 6.24924 4.2956 3.45524 8.48291C-1.08388 15.2854 -1.15665 24.2191 3.27185 30.9751C4.97986 33.5807 8.09819 36.3743 10.8894 37.7997C13.6018 39.1849 17.2376 39.9338 20.3598 39.7504L22.2962 39.6366L22.222 42.6286C22.1354 46.1273 22.4261 48.4379 23.3117 51.2863C26.0507 60.0976 32.9338 66.5051 41.8671 68.5597C43.4737 68.9292 44.2989 69 46.9973 69C50.4819 69 52.5681 68.6605 55.3433 67.6418C56.6078 67.1775 59.8395 65.5485 60.4275 65.0789C61.2222 64.4443 61.2746 63.2982 60.5333 62.7647C59.935 62.334 59.3578 62.4281 58.2127 63.1428C53.7454 65.9313 47.5425 66.9271 42.2197 65.71C33.2819 63.6666 26.4425 56.1112 25.1204 46.8208C24.7786 44.4183 24.9849 40.1615 25.5513 37.9391C26.5821 33.8928 28.4937 30.4666 31.3552 27.5367C34.6222 24.1913 38.128 22.2393 42.7219 21.2078C44.6949 20.7646 49.3077 20.7665 51.2888 21.211C56.0763 22.2856 59.9188 24.5103 63.2071 28.1117C67.0441 32.3139 69.048 37.5967 69.048 43.5093C69.048 48.6977 67.6228 53.159 64.6831 57.1718C64.0473 58.0399 63.4444 58.909 63.3429 59.1035C62.9216 59.9126 63.6665 60.9753 64.6553 60.9753C65.2169 60.9753 66.102 60.0672 67.4166 58.143C69.1818 55.5591 70.3221 52.9536 71.1966 49.5072C71.6818 47.5952 71.7124 47.2417 71.7124 43.551V39.6277L73.4594 39.7514C77.658 40.0484 82.0909 38.7753 85.6424 36.2525C87.2592 35.1041 89.6319 32.6394 90.7228 30.9751C95.4569 23.7527 95.0262 14.1474 89.6628 7.33884C87.0584 4.03295 83.5444 1.74141 79.1889 0.508786C77.1347 -0.0725957 72.1693 -0.0722169 70.1141 0.509353C61.9403 2.82223 56.4245 9.25708 55.4207 17.6509L55.2118 19.3981L54.4727 19.13C50.4305 17.6645 43.5609 17.6657 39.5148 19.1326L38.7686 19.4032L38.6396 17.9884C38.1177 12.265 34.7515 6.53351 30.0062 3.28918C28.258 2.09394 26.41 1.25444 25.9206 1.43307C25.2451 1.67986 24.9467 2.11396 24.9467 2.85036C24.9467 3.65984 24.8139 3.54674 27.5641 5.08053C29.5656 6.19703 32.3754 9.04522 33.6214 11.2208C34.9996 13.6272 35.9671 17.0592 35.9706 19.5546L35.972 20.5244L34.6398 21.3286C33.907 21.7708 33.2662 22.1547 33.2157 22.1817C33.1652 22.2087 33.119 21.113 33.113 19.7469C33.1031 17.4772 33.0531 17.1158 32.5318 15.5545C31.7679 13.2669 30.8408 11.6874 29.2979 10.0445C27.1922 7.80277 25.0239 6.5607 22.1509 5.951C15.7479 4.59186 9.2891 8.06901 6.64137 14.3003C6.30198 15.099 6.0234 15.9702 6.02212 16.2361C6.01899 16.9349 6.64799 17.5463 7.37015 17.5463C8.21046 17.5463 8.51384 17.2429 8.9747 15.9414C11.3626 9.19911 19.1582 6.45024 25.2416 10.2055C27.5564 11.6345 29.6018 14.6455 30.1876 17.4869C31.3232 22.9936 28.2056 28.7187 23.0583 30.5796C21.6314 31.0954 18.5327 31.2895 16.9877 30.96C15.4442 30.6307 13.1636 29.3864 11.8997 28.1842C10.4221 26.7784 9.41571 25.1447 8.83615 23.211C8.30693 21.4457 7.83927 20.7563 7.17022 20.7563C5.89882 20.7563 5.52249 21.6983 6.03498 23.5984C7.35122 28.4793 11.2281 32.3628 16.018 33.5988C18.3159 34.1917 21.9921 34.0571 23.8756 33.3112C24.1299 33.2104 24.0825 33.4825 23.6 34.8953L23.0173 36.6011L22.0066 36.7508C20.1702 37.0229 16.8966 36.8726 15.2996 36.4426C13.6752 36.0055 11.2542 34.8813 9.94713 33.9572C7.52377 32.2438 5.18952 29.3141 4.06494 26.5743C1.41464 20.117 2.80677 12.7746 7.61528 7.84828C10.7 4.68778 14.2613 3.10036 18.7821 2.87075C20.7492 2.77087 21.0222 2.71384 21.4006 2.32525C21.9486 1.76218 21.9373 1.0305 21.3718 0.449497C20.9546 0.020683 20.7924 -0.0127394 19.2126 0.00293274C18.2733 0.012185 16.856 0.140207 16.0631 0.287487ZM77.9634 3.17476C84.1845 4.49405 89.0878 9.28747 90.7653 15.6889C91.3232 17.8177 91.3583 21.6862 90.8386 23.7774C89.7609 28.1156 87.1742 31.8715 83.653 34.2108C80.3745 36.3888 76.238 37.359 72.5333 36.8186L70.9769 36.5916L70.3995 34.9051C70.0818 33.9774 69.8442 33.2185 69.8712 33.2185C69.8984 33.2185 70.2645 33.3431 70.6847 33.4955C72.1206 34.0161 74.4124 34.2183 76.1685 33.9793C82.1082 33.1708 86.5171 29.2538 88.0887 23.3889C88.5321 21.734 88.5283 18.1117 88.0814 16.4134C87.6356 14.7199 86.6212 12.5256 86.1692 12.2769C85.6104 11.9695 85.1407 12.025 84.6001 12.4619C84.0441 12.9111 83.9465 13.815 84.3844 14.4574C84.7208 14.9508 85.586 17.573 85.586 18.0988C85.586 18.4434 85.4744 18.4904 84.6589 18.4904C83.9195 18.4904 83.6404 18.5843 83.2808 18.954C83.0327 19.2089 82.8296 19.6375 82.8296 19.9066C82.8296 20.1757 83.0327 20.6043 83.2808 20.8592C83.6404 21.2289 83.9195 21.3228 84.6589 21.3228C85.733 21.3228 85.7609 21.3981 85.2927 23.035C84.2355 26.7312 81.294 29.7538 77.697 30.8401C76.104 31.3212 76.0307 31.2925 76.0307 30.1889C76.0307 29.4291 75.9394 29.1422 75.5796 28.7727C75.0048 28.1819 74.3003 28.1819 73.7255 28.7727C73.3631 29.1449 73.2744 29.4277 73.2744 30.2098V31.1836L72.6457 31.0624C68.2902 30.2227 64.4508 26.3271 63.7893 22.0762L63.672 21.3228H64.6228C65.387 21.3228 65.6618 21.2319 66.0243 20.8592C66.2724 20.6043 66.4754 20.1757 66.4754 19.9066C66.4754 19.6375 66.2724 19.2089 66.0243 18.954C65.6647 18.5843 65.3856 18.4904 64.6461 18.4904C63.5239 18.4904 63.5002 18.3775 64.182 16.2903C64.9923 13.8099 66.4172 11.8826 68.4725 10.4872C69.7294 9.63377 72.0362 8.67173 72.826 8.67173C73.242 8.67173 73.2744 8.74027 73.2744 9.62433C73.2744 10.3841 73.3657 10.671 73.7255 11.0405C73.9735 11.2954 74.3907 11.5041 74.6525 11.5041C74.9144 11.5041 75.3315 11.2954 75.5796 11.0405C75.9394 10.671 76.0307 10.3841 76.0307 9.62433C76.0307 8.75198 76.0669 8.67173 76.4598 8.67173C77.0435 8.67173 79.1038 9.37207 79.8765 9.83336C81.1264 10.5794 82.3396 10.1104 82.3396 8.88113C82.3396 8.12962 82.0476 7.80391 80.7878 7.15058C74.8534 4.07223 67.3218 6.00368 63.4352 11.6005C61.6432 14.181 60.9054 16.5928 60.8848 19.9359C60.8771 21.198 60.8295 22.2087 60.779 22.1817C60.7285 22.1549 60.0877 21.7708 59.3549 21.3286L58.0227 20.5244L58.0291 19.4602C58.0442 16.9463 58.9087 13.8077 60.2588 11.3647C61.2773 9.5218 63.7334 6.85451 65.5247 5.64624C69.2005 3.16664 73.7051 2.27143 77.9634 3.17476ZM18.3449 12.1904C18.1355 12.464 17.964 12.8466 17.964 13.0405C17.964 13.2346 17.6204 13.7118 17.2003 14.1009C16.2865 14.9474 15.7685 16.0318 15.763 17.1092C15.7531 19.0343 16.7905 20.1557 19.3899 21.0293C20.5425 21.417 20.8517 21.8628 20.5268 22.6689C20.4034 22.975 20.1538 23.3071 19.9723 23.407C19.4258 23.7074 18.3903 23.6132 17.5322 23.1847C16.9954 22.9166 16.562 22.8222 16.2442 22.9041C15.645 23.0588 15.1566 23.9742 15.3189 24.6385C15.4563 25.2015 16.5077 25.98 17.3697 26.1572C17.8273 26.2512 17.964 26.3766 17.964 26.7023C17.964 26.9349 18.1355 27.3492 18.3449 27.6228C19.1239 28.6404 20.7194 27.9746 20.7209 26.6315C20.7213 26.2542 20.8839 26.0486 21.41 25.7599C21.7887 25.5522 22.3626 24.9763 22.6852 24.4802C24.2975 22.0014 23.2233 19.2556 20.2749 18.3197C19.5754 18.0977 18.8934 17.8226 18.7591 17.7082C18.2044 17.235 18.7275 16.0358 19.4888 16.0358C19.6546 16.0358 20.1353 16.2206 20.5572 16.4465C21.2518 16.8186 21.3686 16.8315 21.7986 16.5835C22.0597 16.4329 22.3909 16.0945 22.5344 15.8315C22.9039 15.1549 22.5064 14.3764 21.5002 13.806C21.0335 13.5414 20.7203 13.2282 20.7203 13.026C20.7203 12.3826 20.0074 11.6929 19.3422 11.6929C18.8951 11.6929 18.6211 11.8296 18.3449 12.1904ZM75.7167 16.846C73.736 18.8813 73.2744 19.4563 73.2744 19.8889C73.2744 20.2982 73.6018 20.7678 74.6843 21.9109C75.9511 23.2486 76.1645 23.3998 76.7843 23.3998C77.3151 23.3998 77.5641 23.2822 77.8653 22.8887C78.3806 22.2157 78.2337 21.6283 77.3104 20.6689L76.59 19.9206L78.3317 18.099C80.2558 16.0866 80.4702 15.5407 79.6481 14.7469C78.7742 13.9032 78.3708 14.1187 75.7167 16.846ZM44.7004 23.7027C40.2633 24.3777 36.8083 26.0556 33.7227 29.0339C25.746 36.7325 25.5406 49.5907 33.2668 57.5771C36.9468 61.3811 41.7533 63.43 46.9973 63.43C52.2551 63.43 57.0383 61.3911 60.7279 57.5771C68.4567 49.588 68.2512 36.7351 60.272 29.0339C56.6833 25.5699 52.5611 23.8248 47.6405 23.6862C46.3266 23.649 45.0036 23.6566 44.7004 23.7027ZM51.1318 26.9761C57.0879 28.5605 61.7259 33.4053 63.1992 39.5816C63.776 42.0002 63.7422 45.3127 63.1153 47.771C61.4752 54.2021 56.5186 58.9953 50.1346 60.3233C48.0824 60.7502 44.5567 60.6192 42.6192 60.0438C36.7732 58.3084 32.4009 53.7374 30.8794 47.771C30.2525 45.3127 30.2187 42.0002 30.7955 39.5816C32.3873 32.909 37.4669 27.9935 44.1201 26.6874C45.9156 26.3348 49.2355 26.4716 51.1318 26.9761ZM39.2796 32.7535C37.4505 33.3369 36.3028 34.9789 36.3028 37.0119C36.3028 39.907 38.8504 41.9813 41.6229 41.3437C42.4395 41.156 42.8188 40.9253 43.6041 40.139C44.721 39.0208 45.074 38.0439 44.9198 36.497C44.7414 34.7076 43.5865 33.237 41.9726 32.7446C40.8612 32.4055 40.3649 32.4072 39.2796 32.7535ZM46.1289 42.5153C38.2506 50.6044 37.2583 51.6887 37.2583 52.2068C37.2583 52.9436 37.918 53.6112 38.6462 53.6112C39.11 53.6112 40.3827 52.379 47.9599 44.5928C56.3472 35.9744 56.7364 35.5437 56.7364 34.8822C56.7364 34.1149 56.0875 33.4073 55.3838 33.4073C55.1219 33.4073 52.1754 36.3071 46.1289 42.5153ZM41.6826 35.8475C42.934 37.1334 41.7508 39.0631 40.0622 38.4906C38.8221 38.0699 38.6582 36.2217 39.8044 35.5818C40.5499 35.1656 41.094 35.2427 41.6826 35.8475ZM52.5699 45.7079C50.4185 46.0922 49.124 47.7502 49.1153 50.1328C49.1111 51.2959 49.1828 51.5893 49.6666 52.3937C51.076 54.7361 54.1756 55.2406 56.2024 53.4579C57.2079 52.5735 57.646 51.5557 57.6511 50.0924C57.661 47.2387 55.3182 45.2172 52.5699 45.7079ZM54.4736 48.9236C55.379 49.7976 54.7353 51.723 53.5378 51.723C52.0174 51.723 51.2061 50.0246 52.2261 48.9766C52.8171 48.3692 53.8735 48.3443 54.4736 48.9236Z" fill="#4AA8FF"/>
</g>
</svg>
