<svg width="94" height="69" viewBox="0 0 94 69" fill="none" xmlns="http://www.w3.org/2000/svg">
<mask id="mask0_116_254" style="mask-type:alpha" maskUnits="userSpaceOnUse" x="0" y="0" width="94" height="69">
<rect width="94" height="69" fill="#C4C4C4"/>
</mask>
<g mask="url(#mask0_116_254)">
<path fill-rule="evenodd" clip-rule="evenodd" d="M11.6713 0.351309C10.55 0.906296 10.1415 1.75984 10.1415 3.54738C10.1415 5.11796 10.3034 5.59847 11.0805 6.33359C11.6084 6.83318 12.2855 7.13207 12.8891 7.13207H13.293L13.2923 18.95L13.2918 30.7679L12.1808 31.3425C10.9347 31.9867 8.83383 33.4964 7.94163 34.3886C6.82635 35.5041 6.91974 36.5346 8.26806 37.9911L9.1853 38.9818L8.51271 39.7116C7.70295 40.59 7.51967 41.3223 7.88839 42.2049C8.14283 42.8139 8.1352 42.8695 7.61156 44.2011C7.12508 45.4383 7.00881 45.601 6.40953 45.8821C6.04463 46.0535 5.57821 46.4471 5.37287 46.7571C5.01692 47.2946 4.99967 47.4744 5 50.6549C5.00017 54.5594 5.09471 54.9062 6.3266 55.5254C6.73712 55.7316 7.141 56.0674 7.22393 56.2718C7.30703 56.476 7.55865 57.0698 7.78323 57.5913C8.17949 58.5118 8.18347 58.5596 7.91792 59.2235C7.39892 60.5203 7.57308 60.8331 10.3699 63.6279C13.1702 66.4261 13.4283 66.5694 14.7899 66.0798C15.519 65.8175 15.5749 65.8204 16.2041 66.1521L16.8591 66.4974L11.3366 66.5047L5.81391 66.512L5.40687 66.9192C4.88788 67.438 4.88788 68.074 5.40687 68.5928L5.81391 69H47.4613H89.1087L89.5158 68.5928C89.7397 68.3689 89.923 67.9924 89.923 67.756C89.923 67.5196 89.7397 67.1431 89.5158 66.9192C89.1183 66.5216 89.0477 66.512 86.5154 66.512H83.9219L84.7247 65.8746C91.0324 60.8656 91.6475 51.3683 86.0518 45.3807L85.2923 44.5681L85.244 37.668C85.1969 30.9315 85.1872 30.7519 84.8324 30.0887C84.3869 29.2562 83.503 28.4579 82.7635 28.2201C82.3621 28.091 75.103 27.2018 74.4507 27.2018C74.4087 27.2018 74.3397 26.6057 74.2976 25.8769C74.2058 24.293 73.9408 23.8845 73.0046 23.8845C72.0788 23.8845 71.8436 24.2527 71.8436 25.7021V26.9129L70.8069 26.8041C70.2368 26.7442 69.452 26.6513 69.063 26.5976L68.3556 26.5001L68.3996 21.5017L68.4433 16.5035L70.0051 16.4554C71.143 16.4204 71.6039 16.4655 71.7028 16.6213C71.7774 16.739 71.8396 17.4768 71.8411 18.2608C71.8439 19.8986 72.0474 20.2355 73.0335 20.2355C74.0509 20.2355 74.25 19.8288 74.2402 17.771C74.2339 16.4419 74.1622 15.8749 73.9501 15.4754C73.5981 14.8125 72.769 14.1724 72.0095 13.9777L71.4289 13.8287L71.3843 10.2437L71.3395 6.65885L72.3188 5.90532C73.4115 5.06439 73.6403 4.56264 73.2631 3.8335C73.0095 3.34286 72.7041 3.15129 72.1762 3.15129C71.7245 3.15129 69.2042 5.08213 69.0186 5.57044C68.9301 5.80265 68.858 7.77911 68.858 9.96257V13.9326L68.4019 13.9352C67.6943 13.9395 66.6662 14.6139 66.2518 15.3457C65.8865 15.9908 65.8779 16.1227 65.8751 21.1063L65.8724 26.2066L65.4163 26.1935C65.1655 26.1864 62.2048 25.8693 58.8372 25.4886L52.7145 24.7968L50.0263 16.0059L47.3381 7.215L47.9367 7.08496C48.7619 6.90583 49.5355 6.34006 49.9405 5.61954C50.212 5.1362 50.281 4.71889 50.281 3.55799C50.281 1.7484 49.8713 0.896013 48.7382 0.347495C48.0228 0.00116675 47.9534 -0.000160363 30.2003 5.50231e-06C12.3865 0.000171368 12.3805 0.000171339 11.6713 0.351309ZM47.7101 3.56595V4.56115H30.2113H12.7124L12.661 3.75288C12.6328 3.30836 12.6492 2.84145 12.6977 2.71539C12.7718 2.52216 15.5152 2.49297 30.2478 2.52846L47.7101 2.57076V3.56595ZM24.0742 15.923V24.7138H19.9276H15.7809V15.923V7.13207H19.9276H24.0742V15.923ZM47.393 15.8828L50.0614 24.6309L42.3928 24.7138C35.1491 24.7921 34.7049 24.8144 34.3752 25.1127C33.8656 25.5742 33.9083 26.4216 34.4632 26.858C34.8912 27.1947 35.0607 27.2018 42.6736 27.2018H50.4469L50.4502 29.9801C50.452 31.5082 50.5278 33.273 50.6187 33.902C50.9122 35.932 52.0158 37.4042 53.9102 38.2924L54.8423 38.7295L68.8165 38.7754L82.7907 38.8216V40.792V42.7625L81.5038 42.2196C79.5686 41.4036 78.0256 41.1015 75.8244 41.1082C70.4039 41.1244 65.6533 44.1621 63.3086 49.1109C62.6845 50.4282 62.0575 52.6264 62.0575 53.4974C62.0575 53.7906 62.0109 54.2638 61.9538 54.5489L61.8502 55.0673H53.6413H45.4323L45.5514 53.9552C45.7478 52.1222 45.6673 48.8826 45.3848 47.2387C44.0407 39.4175 38.4915 32.7059 31.0545 29.9066C27.0067 28.3831 21.7697 28.1017 17.569 29.1821C16.9049 29.3529 16.2495 29.5183 16.1127 29.5498C15.9125 29.5958 15.8544 29.3723 15.8151 28.4044L15.7664 27.2018H22.7918C29.6324 27.2018 29.8265 27.1929 30.1799 26.8636C30.4168 26.643 30.543 26.3282 30.543 25.9578C30.543 24.954 30.0887 24.7138 28.1895 24.7138H26.5622V15.923V7.13207L35.6434 7.1334L44.7245 7.13472L47.393 15.8828ZM67.5173 28.9431C77.9015 30.0836 81.9568 30.5867 82.2352 30.7691C82.7604 31.1131 82.8105 31.4251 82.7556 34.0023L82.7078 36.2415H68.9137H55.1197L54.4176 35.7439C53.1789 34.8658 53.1008 34.5683 53.1008 30.7291C53.1008 28.8804 53.1195 27.368 53.1422 27.3684C53.1649 27.3687 59.6339 28.0774 67.5173 28.9431ZM26.499 31.2679C29.259 31.7383 31.8452 32.761 34.281 34.3453C36.0584 35.5016 38.7177 38.1888 39.9289 40.0524C42.3702 43.809 43.5268 48.3656 43.1445 52.7219C42.9347 55.1131 42.9579 55.0673 41.9589 55.0673C41.2281 55.0673 41.1379 55.0308 41.2415 54.777C41.6071 53.883 41.6768 53.0867 41.6275 50.363C41.5646 46.8878 41.4279 46.4587 40.1954 45.8669C39.6036 45.5827 39.4419 45.3915 39.1622 44.6458C38.9799 44.1593 38.7172 43.5416 38.5784 43.2731C38.352 42.8352 38.3521 42.7471 38.581 42.4203C38.9015 41.9629 38.9104 40.9262 38.5989 40.3384C38.3155 39.8038 34.0997 35.6102 33.581 35.3472C33.0701 35.0881 32.0073 35.1189 31.5991 35.4047C31.2872 35.6233 31.1217 35.5908 29.8527 35.0615C28.5793 34.5304 28.4214 34.4137 28.1285 33.7855C27.5793 32.6076 27.0789 32.4359 24.0009 32.37C20.5285 32.2957 19.7312 32.4007 19.0178 33.0272C18.71 33.2974 18.4134 33.7225 18.3587 33.9715C18.2744 34.3546 18.0384 34.5182 16.8267 35.0327C15.455 35.6152 15.3731 35.6301 14.8967 35.3838C14.5688 35.2141 14.1477 35.1548 13.662 35.2095C13.0399 35.2797 12.7779 35.4381 11.9825 36.2253L11.04 37.1579L10.5077 36.6089C10.2152 36.3069 9.97565 36.0071 9.97565 35.9426C9.97565 35.8783 10.5887 35.3711 11.3377 34.8154C13.6273 33.1179 16.7118 31.8029 19.6788 31.2594C21.2996 30.9625 24.7324 30.9667 26.499 31.2679ZM25.9636 35.2336C26.1428 35.9469 26.8624 36.619 27.7697 36.9202C28.2459 37.0783 29.0834 37.4193 29.6307 37.6781C30.691 38.1795 31.5845 38.2719 32.2851 37.9527C32.6974 37.7648 32.7926 37.833 34.5216 39.5567C36.2201 41.2498 36.3133 41.3772 36.0891 41.6973C35.7127 42.2347 35.8029 43.2721 36.3216 44.3689C36.5804 44.9163 36.9214 45.7537 37.0794 46.2299C37.3807 47.1372 38.0527 47.8569 38.7661 48.0361L39.168 48.1369V50.6951C39.168 52.9865 39.1378 53.2625 38.8778 53.3431C37.8234 53.67 37.664 53.8817 36.5805 56.3942C35.8764 58.027 35.731 58.856 36.0242 59.5641C36.2332 60.0685 36.23 60.0729 34.4531 61.8555L32.6726 63.6415L31.9394 63.378C31.1192 63.0831 31.3307 63.0307 28.3038 64.2785C26.5853 64.9871 26.3101 65.1902 26.0334 65.9552L25.8321 66.512H23.2968H20.7614L20.5332 65.973C20.2024 65.1912 19.8621 64.9497 18.0172 64.1876C15.3918 63.1028 15.3902 63.1025 14.5851 63.4186L13.879 63.696L12.082 61.899L10.2848 60.1018L10.5779 59.4873C10.9231 58.7636 10.8713 58.5264 9.81542 55.9825C9.04912 54.1366 8.80762 53.7969 8.02672 53.4665L7.48766 53.2383L7.49363 50.7111L7.4996 48.1838L8.19856 47.8521C8.93865 47.5008 9.12874 47.2149 9.90698 45.2812C10.9528 42.6829 10.9118 42.867 10.6217 42.0603L10.3581 41.3271L12.1442 39.5466C13.9267 37.7696 13.9312 37.7665 14.4356 37.9755C15.1691 38.2793 15.9664 38.1201 18.0201 37.2598C19.8175 36.5067 20.5884 35.9235 20.5902 35.3155C20.5907 35.171 20.6408 35.003 20.7017 34.9423C20.7624 34.8814 21.9487 34.8317 23.3375 34.8317H25.8628L25.9636 35.2336ZM21.0887 40.7071C15.8631 41.8994 12.4844 46.7018 13.1472 51.9953C13.7814 57.0608 18.0381 60.8858 23.079 60.9202C25.0265 60.9333 26.0819 60.6961 27.8764 59.8417C30.5477 58.57 32.6658 55.878 33.2815 52.9726C34.2662 48.324 32.0751 43.6648 27.9147 41.5612C25.9528 40.5693 23.2015 40.2249 21.0887 40.7071ZM25.0509 43.1351C27.7606 43.7597 30.24 46.2391 30.8646 48.9488C31.5679 51.9989 30.2269 55.4333 27.6838 57.0957C24.408 59.237 20.5476 58.859 17.81 56.1288C12.9612 51.2938 16.3806 43.0178 23.2449 42.974C23.8379 42.9704 24.6506 43.0427 25.0509 43.1351ZM78.727 43.8849C82.3553 44.7488 85.5924 47.7747 86.8745 51.5012C87.2809 52.6823 87.3311 53.0649 87.332 54.9843C87.3326 56.8794 87.2792 57.3013 86.8906 58.4675C86.2741 60.3173 85.3922 61.7492 84.0322 63.1093C82.6715 64.47 81.2391 65.3518 79.3905 65.9668C78.2299 66.3528 77.7932 66.4087 75.9073 66.4118C73.9716 66.4153 73.6152 66.3684 72.4241 65.954C70.4428 65.2649 69.4234 64.6147 67.8563 63.0411C65.8713 61.0479 64.9218 59.1429 64.5463 56.3997C64.2257 54.0591 64.811 51.2627 66.068 49.1278C66.7756 47.9261 68.849 45.8526 70.0507 45.145C72.617 43.634 75.7575 43.1779 78.727 43.8849ZM49.0296 44.6932C48.623 45.0996 48.6224 45.1055 48.6224 48.5985C48.6224 52.0915 48.623 52.0975 49.0296 52.5038C49.2535 52.7277 49.63 52.911 49.8664 52.911C50.1027 52.911 50.4792 52.7277 50.7032 52.5038C51.11 52.0971 51.1104 52.0945 51.1104 48.5521C51.1104 45.0613 51.1046 45.0019 50.7266 44.6466C50.2172 44.1682 49.5358 44.187 49.0296 44.6932ZM53.5546 44.4933C53.4045 44.6075 53.2036 44.9108 53.1082 45.1676C52.8747 45.7965 52.8828 51.3852 53.1182 52.0605C53.4258 52.943 54.3895 53.1973 55.0598 52.5728C55.4121 52.2447 55.4229 52.1256 55.4229 48.592C55.4229 45.1706 55.4028 44.9294 55.0911 44.6177C54.7168 44.2434 53.9639 44.1825 53.5546 44.4933ZM57.7739 44.6698C57.4265 45.0395 57.4133 45.1863 57.4133 48.6387V52.2235L57.8503 52.5672C58.395 52.9958 58.9193 53.0047 59.4267 52.5942C59.8133 52.2816 59.819 52.2313 59.8689 48.698L59.9195 45.1185L59.5032 44.7023C58.9717 44.1707 58.2555 44.1573 57.7739 44.6698ZM21.8759 44.6215C20.1273 45.0629 18.4648 46.4187 17.6582 48.0613C17.2401 48.9128 17.1908 49.1882 17.1908 50.6743C17.1908 52.2132 17.2304 52.4164 17.7299 53.4315C18.369 54.7306 19.4091 55.7493 20.7279 56.3677C21.5504 56.7531 21.8783 56.8089 23.3278 56.8089C24.8248 56.8089 25.0827 56.7616 25.9727 56.3247C27.2761 55.6846 28.2934 54.6383 28.9366 53.2761C29.4017 52.2907 29.4601 52.0046 29.4509 50.7548C29.4363 48.783 28.9854 47.6751 27.6549 46.3447C26.9094 45.5993 26.3848 45.2377 25.6501 44.9632C24.5257 44.5431 22.804 44.3872 21.8759 44.6215ZM25.0067 47.4071C26.3182 48.0795 26.9658 49.186 26.9658 50.7548C26.9658 51.9621 26.7206 52.5547 25.882 53.3745C25.1129 54.1265 24.1293 54.4597 22.9339 54.3731C19.7916 54.1459 18.4371 50.2832 20.7186 48.0553C21.8739 46.9272 23.5707 46.6708 25.0067 47.4071ZM73.8779 47.1956C72.4752 47.5733 71.3414 48.2407 70.2524 49.3295C68.6631 50.9188 67.8595 52.8203 67.8668 54.9731C67.8721 56.4642 68.0836 57.3718 68.7343 58.6936C69.8422 60.9447 72.2531 62.6545 74.8673 63.0433C77.8834 63.4919 81.075 62.0263 82.7358 59.4302C83.3893 58.4085 83.4399 57.7555 82.9045 57.2524C82.1823 56.574 81.3973 56.8248 80.7418 57.9434C79.4369 60.17 76.5522 61.1819 74.008 60.3058C72.7182 59.8616 71.1863 58.3252 70.6865 56.9747C69.9144 54.8876 70.5168 52.3421 72.1163 50.9342C73.2485 49.9377 74.1881 49.5468 75.6467 49.4653C77.8541 49.3423 79.5409 50.2799 80.9506 52.4134C81.4751 53.2071 81.6313 53.3322 82.153 53.3761C82.6395 53.4169 82.8189 53.3423 83.1034 52.9805C83.5768 52.3788 83.5443 51.9954 82.9294 50.9233C81.1797 47.8714 77.3002 46.2739 73.8779 47.1956ZM74.0828 51.15C72.5225 51.8878 71.6877 53.237 71.6814 55.0311C71.6769 56.2897 71.9882 57.0958 72.8055 57.9426C74.042 59.2237 75.5411 59.6304 77.2243 59.1411C79.7224 58.4148 81.0068 55.4115 79.8103 53.0943C79.4003 52.3003 78.376 51.3297 77.6127 51.0117C76.6695 50.6188 75.0745 50.6813 74.0828 51.15ZM77.1329 53.6674C78.1355 54.511 77.905 56.1655 76.7157 56.6624C75.3979 57.2131 74.1657 56.3899 74.1657 54.9588C74.1657 54.3551 74.2583 54.1199 74.6505 53.7276C75.3077 53.0704 76.3921 53.0442 77.1329 53.6674ZM62.3992 58.4259C63.0713 61.2279 64.93 64.107 67.2786 65.9846L67.9384 66.512L48.7846 66.5084L29.6307 66.5047L30.362 66.173C31.0613 65.8557 31.1249 65.8534 31.8188 66.1183C33.0172 66.576 33.5624 66.305 35.7953 64.142C36.8469 63.1232 37.9337 62.004 38.2103 61.6546C38.8323 60.8693 38.9947 59.8144 38.6117 59.0467C38.3752 58.5727 38.3735 58.4665 38.5961 58.0361L38.8448 57.5553H50.5176H62.1904L62.3992 58.4259Z" fill="#4AA8FF"/>
</g>
</svg>
