<svg width="94" height="69" viewBox="0 0 94 69" fill="none" xmlns="http://www.w3.org/2000/svg">
<mask id="mask0_116_252" style="mask-type:alpha" maskUnits="userSpaceOnUse" x="0" y="0" width="94" height="69">
<rect width="94" height="69" fill="#C4C4C4"/>
</mask>
<g mask="url(#mask0_116_252)">
<path fill-rule="evenodd" clip-rule="evenodd" d="M44.8145 0.0256654C41.2567 0.350266 37.939 1.20593 35.5563 2.41344C33.4631 3.4741 31.0179 5.53525 29.6134 7.42298C27.4691 10.3047 26.1295 14.1488 25.7295 18.5681L25.6364 19.595L24.8683 19.8087C23.8768 20.0843 22.9808 20.8603 22.5481 21.8178C22.2266 22.5294 22.2259 22.5414 22.2259 27.6555V32.78L22.5586 33.4314C22.9601 34.2172 23.7258 34.9357 24.5694 35.318C25.401 35.6951 28.1305 35.726 28.9515 35.3678C29.2387 35.2425 29.4897 35.14 29.5094 35.14C29.5289 35.14 29.5877 35.4284 29.6401 35.7806C29.7875 36.7729 30.8221 39.7876 31.5031 41.2086C31.8407 41.9132 32.454 43.025 32.866 43.6793L33.615 44.8687L33.0455 47.1628L32.476 49.4569L32.8451 50.1179L33.2142 50.779L32.912 50.8436C28.1119 51.8707 24.3507 53.2659 18.6383 56.1385C14.9002 58.0183 14.1053 58.7062 13.3615 60.7053C13.092 61.4295 13.0594 61.8071 13.0153 64.7208C12.9628 68.1797 13.0189 68.5672 13.6105 68.8368C14.0843 69.0527 80.9332 69.0552 81.407 68.8395C81.9738 68.5812 82.0352 68.2158 82.0334 65.1057C82.0314 61.4037 81.8547 60.6586 80.5815 58.9809C79.8509 58.0183 78.8509 57.355 75.9665 55.9199C71.251 53.5739 67.2052 52.0125 63.8967 51.2621C61.6175 50.7449 61.7274 50.8081 62.1386 50.2508C62.3267 49.9957 62.4807 49.6444 62.4807 49.4701C62.4807 49.2957 62.2375 48.1852 61.94 47.0021L61.3992 44.8512L61.9665 43.9966C62.4667 43.2433 62.6275 43.1058 63.3232 42.8359C64.7834 42.2698 65.8988 41.5608 66.9451 40.5343C68.2905 39.2142 68.8375 38.1359 69.2883 35.9155C69.3432 35.6448 69.4449 35.5442 69.6645 35.5432C70.1435 35.5412 71.2756 34.9442 71.7404 34.4485C71.975 34.1984 72.3087 33.7207 72.4822 33.3869C72.7962 32.7819 72.7973 32.7636 72.7973 27.6555C72.7973 22.5414 72.7966 22.5294 72.4751 21.8178C72.0424 20.8603 71.1464 20.0843 70.1549 19.8087L69.3868 19.595L69.2937 18.5681C68.6819 11.8085 65.952 6.65484 61.3458 3.56324C57.7699 1.16318 53.873 0.113053 48.1859 0.0170345C46.6654 -0.00872316 45.1482 -0.00481231 44.8145 0.0256654ZM50.2087 2.37784C58.6724 3.153 64.2004 7.18455 66.1837 14.0283C66.5615 15.3322 66.8672 17.0396 66.9991 18.5816L67.088 19.622L66.4739 19.7767C66.136 19.8617 65.8125 19.9178 65.7548 19.9013C65.6971 19.8849 65.5494 19.4079 65.4266 18.8412C64.7453 15.6979 62.929 12.4264 60.5366 10.0335C53.5675 3.06265 42.6685 2.71687 35.3186 9.23357C32.4647 11.764 30.3683 15.2958 29.5869 18.8897C29.458 19.4831 29.2965 19.9569 29.2281 19.9424C29.1596 19.928 28.8408 19.8501 28.5194 19.7691L27.9352 19.622L28.0241 18.5816C28.516 12.827 30.5485 8.79016 34.4001 5.91784C38.0844 3.17026 44.1154 1.8198 50.2087 2.37784ZM49.1299 6.95934C55.366 7.61502 60.7735 11.9318 62.7366 17.8217C63.545 20.2471 63.584 20.7393 63.5236 27.7631C63.473 33.6393 63.4471 34.2219 63.1858 35.3423C62.775 37.1044 62.3934 38.2626 61.7096 39.8239C61.0416 41.3494 61.1946 41.2283 59.4465 41.6157C57.3783 42.0741 52.0478 42.5336 48.5507 42.5549C48.0439 42.558 47.5116 43.1048 47.5116 43.6224C47.5116 43.8552 47.6498 44.1854 47.8386 44.4039L48.1658 44.7823L50.7043 44.7534C53.3706 44.7231 55.8393 44.5452 57.7607 44.2449C58.3912 44.1463 58.9306 44.0887 58.9595 44.1168C59.0527 44.2077 57.2076 46.246 56.4274 46.914C54.3657 48.6797 51.7668 49.9704 49.4459 50.3814C48.138 50.6131 45.7219 50.4846 44.4099 50.1136C43.05 49.729 40.9122 48.6626 39.7573 47.7926C36.8428 45.5971 34.2051 42.1879 32.9665 39.015C31.6196 35.5656 31.4654 34.3387 31.4644 27.0698C31.4637 21.7387 31.4875 21.1073 31.7355 19.8908C32.7702 14.813 35.9004 10.7715 40.5595 8.49779C43.327 7.1472 46.1301 6.64405 49.1299 6.95934ZM28.0632 21.9341C28.2919 22.0138 28.5891 22.2413 28.7238 22.4399C28.9488 22.7712 28.9688 23.1805 28.9688 27.4664C28.9688 32.4917 28.9509 32.631 28.2593 33.0012C27.8075 33.2429 25.6885 33.2476 25.2405 33.0079C24.5293 32.6272 24.5214 32.5744 24.4781 27.7873C24.4323 22.7245 24.4738 22.4181 25.2602 22.0254C25.8032 21.7541 27.3978 21.7022 28.0632 21.9341ZM69.5699 21.9866C70.4005 22.3336 70.4373 22.5674 70.4373 27.4962C70.4373 30.2624 70.3842 32.0157 70.2923 32.279C70.0408 33.0004 69.599 33.1846 68.1199 33.1846C66.8587 33.1846 66.7997 33.171 66.4005 32.7885L65.987 32.3924L65.9914 27.5291C65.9959 22.273 65.9798 22.3924 66.7416 21.9951C67.2528 21.7285 68.94 21.7234 69.5699 21.9866ZM66.2821 35.376L66.9506 35.612L66.8616 36.2189C66.7273 37.1331 66.0402 38.2984 65.1484 39.124C64.7112 39.5288 64.2988 39.86 64.232 39.86C64.1652 39.86 64.3148 39.2962 64.5642 38.6072C64.8136 37.9181 65.1248 36.8561 65.2556 36.2472C65.3865 35.6382 65.5206 35.14 65.5536 35.14C65.5866 35.14 65.9145 35.2463 66.2821 35.376ZM38.6907 49.974C40.5349 51.2488 42.7611 52.2075 44.7639 52.5892C45.2942 52.6903 45.6774 52.8299 45.6592 52.9154C45.6073 53.159 42.7859 59.4732 42.6833 59.5755C42.6317 59.627 41.1329 57.6624 39.3527 55.2096C37.5726 52.757 35.8577 50.3978 35.5418 49.967L34.9675 49.1839L35.1904 48.1691L35.4134 47.1544L36.5472 48.2152C37.1708 48.7986 38.1354 49.5901 38.6907 49.974ZM59.4844 49.9628C59.1668 50.3959 57.4506 52.757 55.6705 55.2096C53.8904 57.6624 52.3915 59.627 52.3399 59.5755C52.2373 59.4732 49.4159 53.159 49.364 52.9154C49.3458 52.8299 49.7291 52.6903 50.2593 52.5892C53.1604 52.0364 56.0371 50.5051 58.4648 48.2216L59.5813 47.1713L59.8215 48.1734L60.0617 49.1757L59.4844 49.9628ZM62.1811 53.1538C65.8866 53.9171 70.546 55.6877 75.8738 58.3566C78.0083 59.4259 78.873 60.1336 79.3554 61.206C79.6412 61.8416 79.676 62.1391 79.7179 64.3029L79.7643 66.6966H67.0119H54.2596L54.1881 66.3932C53.966 65.4504 53.4453 62.7089 53.4453 62.4823C53.4453 62.2025 60.1684 52.8197 60.375 52.8112C60.4406 52.8085 61.2534 52.9627 62.1811 53.1538ZM38.2268 57.5937C40.0647 60.1156 41.5703 62.3071 41.573 62.4637C41.5771 62.7027 41.0764 65.3693 40.8351 66.3932L40.7636 66.6966H28.0113H15.2589L15.3035 64.3029C15.3462 62.017 15.3646 61.8756 15.7145 61.1634C15.9159 60.7532 16.2523 60.2532 16.4618 60.0524C17.1986 59.3466 22.4365 56.7369 25.8436 55.3782C28.9969 54.1206 33.3882 52.903 34.4894 52.9807C34.845 53.0058 35.2277 53.4782 38.2268 57.5937ZM50.2087 60.8424C50.2087 60.8729 48.995 60.8977 47.5116 60.8977C46.0282 60.8977 44.8145 60.8494 44.8145 60.7905C44.8145 60.6852 47.2949 55.0708 47.4581 54.8066C47.5224 54.7027 50.2087 60.5975 50.2087 60.8424ZM51.266 63.8309C51.3407 64.1833 51.4702 64.8659 51.554 65.348C51.6377 65.8301 51.7375 66.3309 51.7757 66.4606C51.8409 66.6819 51.5758 66.6966 47.5206 66.6966C45.1422 66.6966 43.1962 66.6746 43.1962 66.6478C43.1962 66.6208 43.3479 65.8539 43.5333 64.9434C43.7188 64.033 43.8705 63.2661 43.8705 63.2391C43.8705 63.2123 45.504 63.1903 47.5004 63.1903H51.1304L51.266 63.8309Z" fill="#4AA8FF"/>
</g>
</svg>
